<?xml version="1.0" encoding="UTF-8" standalone="no"?>
<svg
   xmlns:dc="http://purl.org/dc/elements/1.1/"
   xmlns:cc="http://creativecommons.org/ns#"
   xmlns:rdf="http://www.w3.org/1999/02/22-rdf-syntax-ns#"
   xmlns:svg="http://www.w3.org/2000/svg"
   xmlns="http://www.w3.org/2000/svg"
   xmlns:sodipodi="http://sodipodi.sourceforge.net/DTD/sodipodi-0.dtd"
   xmlns:inkscape="http://www.inkscape.org/namespaces/inkscape"
   viewBox="0 0 641.96002 596.52002"
   height="596.52002"
   width="641.96002"
   xml:space="preserve"
   id="svg2"
   version="1.1"
   sodipodi:docname="extra1.svg"
   inkscape:version="0.92.2 (5c3e80d, 2017-08-06)"><sodipodi:namedview
     pagecolor="#ffffff"
     bordercolor="#666666"
     borderopacity="1"
     objecttolerance="10"
     gridtolerance="10"
     guidetolerance="10"
     inkscape:pageopacity="0"
     inkscape:pageshadow="2"
     inkscape:window-width="1280"
     inkscape:window-height="961"
     id="namedview3825"
     showgrid="false"
     inkscape:measure-start="0,0"
     inkscape:measure-end="0,0"
     inkscape:zoom="1.3310534"
     inkscape:cx="320.98001"
     inkscape:cy="298.26001"
     inkscape:window-x="-8"
     inkscape:window-y="-8"
     inkscape:window-maximized="1"
     inkscape:current-layer="svg2" /><metadata
     id="metadata8"><rdf:RDF><cc:Work
         rdf:about=""><dc:format>image/svg+xml</dc:format><dc:type
           rdf:resource="http://purl.org/dc/dcmitype/StillImage" /></cc:Work></rdf:RDF></metadata><defs
     id="defs6" /><g
     transform="matrix(1.3333333,0,0,-1.2476527,-1.5025693,633.31563)"
     id="g10"><g
       transform="scale(0.1)"
       id="g12"><path
         id="path64"
         style="fill:#2e2d2d;fill-opacity:1;fill-rule:evenodd;stroke:none"
         d="M 795.344,4473.92 H 3926.67 c 66.89,0 121.64,-54.74 121.64,-121.65 V 2506.52 c 0,-66.9 -54.75,-121.65 -121.64,-121.65 H 795.344 c -66.914,0 -121.653,54.75 -121.653,121.65 v 1845.75 c 0,66.91 54.739,121.65 121.653,121.65"
         inkscape:connector-curvature="0" /><path
         id="path66"
         style="fill:#dce5ee;fill-opacity:1;fill-rule:evenodd;stroke:none"
         d="M 790.355,2501.53 H 3931.66 V 4357.25 H 790.355 V 2501.53"
         inkscape:connector-curvature="0" /><path
         id="path68"
         style="fill:#6398d7;fill-opacity:1;fill-rule:evenodd;stroke:none"
         d="m 1289.15,4357.25 89.33,-89.32 h 2553.18 v 89.32 H 1289.15"
         inkscape:connector-curvature="0" /><path
         id="path70"
         style="fill:#f3f6f9;fill-opacity:1;fill-rule:evenodd;stroke:none"
         d="M 790.355,2501.54 H 3931.66 V 4172.19 H 790.355 V 2501.54"
         inkscape:connector-curvature="0" /><path
         id="path72"
         style="fill:#f1485f;fill-opacity:1;fill-rule:evenodd;stroke:none"
         d="m 1054.1,3831.1 h 2613.8 v 281.3 H 1054.1 v -281.3"
         inkscape:connector-curvature="0" /><path
         id="path74"
         style="fill:#8ebae6;fill-opacity:1;fill-rule:evenodd;stroke:none"
         d="m 1054.1,3013.58 h 528.13 v 741.33 H 1054.1 v -741.33"
         inkscape:connector-curvature="0" /><path
         id="path76"
         style="fill:#8ebae6;fill-opacity:1;fill-rule:evenodd;stroke:none"
         d="m 1054.1,2501.54 h 528.13 v 421.94 H 1054.1 v -421.94"
         inkscape:connector-curvature="0" /><path
         id="path78"
         style="fill:#c6e445;fill-opacity:1;fill-rule:evenodd;stroke:none"
         d="m 2984.62,3013.58 h 683.28 v 741.33 h -683.28 v -741.33"
         inkscape:connector-curvature="0" /><path
         id="path80"
         style="fill:#c6e445;fill-opacity:1;fill-rule:evenodd;stroke:none"
         d="m 2984.62,2501.54 h 683.28 v 421.94 h -683.28 v -421.94"
         inkscape:connector-curvature="0" /><path
         id="path82"
         style="fill:#ced5da;fill-opacity:1;fill-rule:evenodd;stroke:none"
         d="M 1647.87,2501.54 H 2930.91 V 3754.92 H 1647.87 V 2501.54"
         inkscape:connector-curvature="0" /><path
         id="path84"
         style="fill:#1e1d1c;fill-opacity:1;fill-rule:evenodd;stroke:none"
         d="m 3570.97,3497.38 h 1140.1 c 57.01,0 103.65,-46.63 103.65,-103.63 V 1672.66 c 0,-57.01 -46.64,-103.65 -103.65,-103.65 h -1140.1 c -57.01,0 -103.64,46.64 -103.64,103.65 v 1721.09 c 0,57 46.63,103.63 103.64,103.63"
         inkscape:connector-curvature="0" /><path
         id="path86"
         style="fill:#f3f6f9;fill-opacity:1;fill-rule:evenodd;stroke:none"
         d="M 3532.89,1634.58 H 4749.15 V 3431.82 H 3532.89 V 1634.58"
         inkscape:connector-curvature="0" /><path
         id="path88"
         style="fill:#1e1d1c;fill-opacity:1;fill-rule:evenodd;stroke:none"
         d="m 2277.71,2088.2 h 436.67 c 73.16,0 133.04,-59.87 133.04,-133.03 v -908.25 c 0,-73.182 -59.88,-133.041 -133.04,-133.041 h -436.67 c -73.17,0 -133.03,59.859 -133.03,133.041 v 908.25 c 0,73.16 59.86,133.03 133.03,133.03"
         inkscape:connector-curvature="0" /><path
         id="path90"
         style="fill:#1e1d1c;fill-opacity:1;fill-rule:evenodd;stroke:none"
         d="M 66.9961,2805.16 H 1478.15 c 36.86,0 67.01,-30.15 67.01,-67.02 v -953.78 c 0,-36.86 -30.15,-67 -67.01,-67 H 66.9961 C 30.1484,1717.36 0,1747.5 0,1784.36 v 953.78 c 0,36.87 30.1484,67.02 66.9961,67.02"
         inkscape:connector-curvature="0" /><path
         id="path92"
         style="fill:#f3f6f9;fill-opacity:1;fill-rule:evenodd;stroke:none"
         d="M 61.3047,1778.66 H 1483.85 v 965.18 H 61.3047 v -965.18"
         inkscape:connector-curvature="0" /><path
         id="path94"
         style="fill:#6398d7;fill-opacity:1;fill-rule:evenodd;stroke:none"
         d="m 3532.89,3336.8 h 1216.26 v 95.02 H 3532.89 v -95.02"
         inkscape:connector-curvature="0" /><path
         id="path96"
         style="fill:#f1485f;fill-opacity:1;fill-rule:evenodd;stroke:none"
         d="M 3595.77,3042.11 H 4686.29 V 3258.5 H 3595.77 v -216.39"
         inkscape:connector-curvature="0" /><path
         id="path98"
         style="fill:#8ebae6;fill-opacity:1;fill-rule:evenodd;stroke:none"
         d="m 3595.77,2675.54 h 512.67 v 283.26 h -512.67 v -283.26"
         inkscape:connector-curvature="0" /><path
         id="path100"
         style="fill:#c6e445;fill-opacity:1;fill-rule:evenodd;stroke:none"
         d="m 4173.61,2675.54 h 512.68 v 283.26 h -512.68 v -283.26"
         inkscape:connector-curvature="0" /><path
         id="path102"
         style="fill:#ced5da;fill-opacity:1;fill-rule:evenodd;stroke:none"
         d="m 3595.77,1634.58 h 1090.52 v 954.8 H 3595.77 v -954.8"
         inkscape:connector-curvature="0" /><path
         id="path104"
         style="fill:#6398d7;fill-opacity:1;fill-rule:evenodd;stroke:none"
         d="M 61.3047,2677.64 H 1483.85 v 66.2 H 61.3047 v -66.2"
         inkscape:connector-curvature="0" /><path
         id="path106"
         style="fill:#f1485f;fill-opacity:1;fill-rule:evenodd;stroke:none"
         d="M 116.047,2469.1 H 1429.11 v 157.3 H 116.047 v -157.3"
         inkscape:connector-curvature="0" /><path
         id="path108"
         style="fill:#8ebae6;fill-opacity:1;fill-rule:evenodd;stroke:none"
         d="m 116.035,1778.66 h 378.09 v 565.15 h -378.09 v -565.15"
         inkscape:connector-curvature="0" /><path
         id="path110"
         style="fill:#ced5da;fill-opacity:1;fill-rule:evenodd;stroke:none"
         d="m 565.316,1778.66 h 863.794 v 565.15 H 565.316 v -565.15"
         inkscape:connector-curvature="0" /><path
         id="path112"
         style="fill:#c6e445;fill-opacity:1;fill-rule:evenodd;stroke:none"
         d="M 116.047,2384.87 H 1429.11 v 48.63 H 116.047 v -48.63"
         inkscape:connector-curvature="0" /><path
         id="path114"
         style="fill:#f3f6f9;fill-opacity:1;fill-rule:evenodd;stroke:none"
         d="m 2171.73,1046.92 h 648.63 v 908.25 h -648.63 v -908.25"
         inkscape:connector-curvature="0" /><path
         id="path116"
         style="fill:#6398d7;fill-opacity:1;fill-rule:evenodd;stroke:none"
         d="m 2171.73,1887.88 h 648.63 v 67.27 h -648.63 v -67.27"
         inkscape:connector-curvature="0" /><path
         id="path118"
         style="fill:#f1485f;fill-opacity:1;fill-rule:evenodd;stroke:none"
         d="m 2202.29,1740.55 h 593.89 v 116.38 h -593.89 v -116.38"
         inkscape:connector-curvature="0" /><path
         id="path120"
         style="fill:#c6e445;fill-opacity:1;fill-rule:evenodd;stroke:none"
         d="m 2202.29,1630.2 h 593.89 v 85.07 h -593.89 v -85.07"
         inkscape:connector-curvature="0" /><path
         id="path122"
         style="fill:#8ebae6;fill-opacity:1;fill-rule:evenodd;stroke:none"
         d="m 2202.29,1520.59 h 593.89 v 85.05 h -593.89 v -85.05"
         inkscape:connector-curvature="0" /><path
         id="path124"
         style="fill:#ced5da;fill-opacity:1;fill-rule:evenodd;stroke:none"
         d="m 2202.29,1046.92 h 593.89 v 446.26 h -593.89 v -446.26"
         inkscape:connector-curvature="0" /><path
         id="path126"
         style="fill:#464648;fill-opacity:1;fill-rule:evenodd;stroke:none"
         d="m 2442.92,1010.93 h 106.25 c 16.46,0 29.88,-13.45 29.88,-29.899 v -0.011 c 0,-16.43 -13.42,-29.879 -29.88,-29.879 h -106.25 c -16.45,0 -29.89,13.449 -29.89,29.879 v 0.011 c 0,16.449 13.44,29.899 29.89,29.899"
         inkscape:connector-curvature="0" /></g></g></svg>