<?xml version="1.0" encoding="utf-8"?>
<!-- Generator: Adobe Illustrator 21.1.0, SVG Export Plug-In . SVG Version: 6.00 Build 0)  -->
<svg version="1.1" id="Calque_1" xmlns="http://www.w3.org/2000/svg" xmlns:xlink="http://www.w3.org/1999/xlink" x="0px" y="0px"
	 viewBox="0 0 432 432" style="enable-background:new 0 0 432 432;" xml:space="preserve">
<style type="text/css">
	.st0{fill:#AE3034;}
	.st1{fill:#3E904D;}
	.st2{fill:#F7EB5B;}
	.st3{fill:#221F20;}
	.st4{fill:#BC9A72;}
	.st5{fill:#FFFFFF;}
	.st6{fill:#E9963E;}
	.st7{fill:#EFB156;}
	.st8{fill:#5EB057;}
	.st9{fill:#A27D56;}
	.st10{fill:#BD8346;}
	.st11{fill:#DD658D;}
	.st12{fill:#404041;}
	.st13{fill:#81BF8E;}
	.st14{fill:#ED7E87;}
	.st15{fill:#B0202B;}
	.st16{fill:#BA9453;}
	.st17{fill:#B99352;}
	.st18{fill:#45A49C;}
	.st19{fill:#59B178;}
	.st20{fill:#C9A25F;}
	.st21{fill:#BCBDBF;}
	.st22{fill:#C7345D;}
	.st23{fill:#2E3192;}
	.st24{fill:#8CC63F;}
	.st25{fill:#22B573;}
	.st26{fill:#333333;}
	.st27{fill:#B1A097;}
	.st28{fill:#574B43;}
	.st29{fill:#85328A;}
	.st30{fill:#53A7DB;}
	.st31{fill:#912D61;}
	.st32{fill:#835F41;}
	.st33{fill:#929496;}
	.st34{fill:#808080;}
	.st35{fill:#6F4E2F;}
	.st36{fill:#A6A8AA;}
	.st37{fill:#DF643A;}
	.st38{fill:#98C355;}
	.st39{fill:#D35998;}
	.st40{fill:#6F665A;}
	.st41{fill:#BFB49D;}
	.st42{fill:#AE82B3;}
	.st43{fill:#B3B3B3;}
	.st44{fill:#5E328B;}
	.st45{fill:#DA404D;}
	.st46{fill:#A994C1;}
	.st47{fill:#8B575B;}
	.st48{fill:#C9C0AF;}
	.st49{fill:#A67C52;}
	.st50{fill:#86A391;}
	.st51{fill:#6595A9;}
	.st52{fill:#483E49;}
	.st53{fill:#F6BA00;}
	.st54{fill:#FC8080;}
	.st55{fill:#1A1A1A;}
	.st56{fill:#749FA8;}
	.st57{fill:#ABC337;}
	.st58{fill:#F67E20;}
	.st59{fill:#52A9B2;}
	.st60{fill:#925A8B;}
	.st61{fill:#DD8383;}
	.st62{fill:#929C3B;}
	.st63{fill:#4D4D4D;}
	.st64{fill:#C69C6D;}
	.st65{fill:#DBB753;}
	.st66{fill:#9EB9B4;}
	.st67{fill:#F2F2F2;}
	.st68{fill:#E2C87F;}
	.st69{fill:#E8BDC4;}
	.st70{fill:#D86D29;}
	.st71{fill:#E0CDAD;}
	.st72{fill:#E6E6E6;}
	.st73{fill:#CCD6CE;}
	.st74{fill:#9FD3C7;}
	.st75{fill-rule:evenodd;clip-rule:evenodd;}
	.st76{fill:#E5BE51;}
	.st77{fill:#B3A693;}
	.st78{fill:#717370;}
	.st79{fill:#9FB14D;}
	.st80{fill:#736357;}
	.st81{fill:#51642D;}
	.st82{fill:#743315;}
	.st83{fill:#0071BC;}
	.st84{fill:#9C1B20;}
	.st85{fill:#009245;}
	.st86{fill:#F6E6CC;}
	.st87{fill:#84CBCB;}
	.st88{fill:#7D9B39;}
	.st89{fill:#3C4E5C;}
	.st90{fill:#998675;}
	.st91{fill:#C7B299;}
	.st92{fill:#9B2F10;}
	.st93{fill:#E7A136;}
	.st94{fill:#978E43;}
	.st95{fill:#7D5E18;}
	.st96{fill:#F2C545;}
	.st97{fill:#E07D28;}
	.st98{fill:#E0D2BE;}
	.st99{fill:#C4A18D;}
	.st100{fill:#BCBD84;}
	.st101{fill:#5F645E;}
	.st102{fill:#CAC2C2;}
	.st103{fill:#959736;}
	.st104{fill:#B0D24A;}
	.st105{fill:#754C24;}
	.st106{fill:#603813;}
	.st107{fill:#8C4A33;}
	.st108{fill:#0B493A;}
	.st109{fill:#C17953;}
	.st110{fill:#F7C64D;}
	.st111{fill:#005371;}
	.st112{fill:#D3E2DC;}
	.st113{fill:#3E8A64;}
	.st114{fill:#299798;}
	.st115{fill:#731115;}
	.st116{fill:#4F4544;}
	.st117{fill:#4C6047;}
	.st118{fill:#4C301C;}
	.st119{fill:#867274;}
	.st120{fill:#C13F47;}
	.st121{fill:#BC8AA8;}
	.st122{fill:#634E42;}
	.st123{fill:#E1B8D7;}
	.st124{fill:#6D866B;}
	.st125{fill:#422918;}
	.st126{fill:#925F36;}
	.st127{fill:#1D1D1B;}
	.st128{fill:#00A099;}
	.st129{fill:#F8B133;}
	.st130{fill:#006633;}
	.st131{fill:#683B11;}
	.st132{fill:#B17F49;}
	.st133{fill:#A3897A;}
	.st134{fill:#E488B5;}
	.st135{fill:#93C01F;}
	.st136{fill:#EDE287;}
	.st137{fill:#E9CB9A;}
	.st138{fill:#EAB8CC;}
	.st139{fill:#7E4E24;}
	.st140{fill:#E5332A;}
	.st141{fill:#F29100;}
</style>
<g>
	<g>
		<g>
			<g>
				<path class="st99" d="M234.8,76.3c0,0.2,0,0.4,0,0.6c-0.1,5.2-0.3,10.3-0.4,15.5c-0.1,6.5-0.1,12.9-0.1,19.4
					c0,0.9,0.1,1.8,0.1,2.8c0,1.7-0.6,2.5-2.3,2.9c-2.4,0.6-4.9,0.9-7.4,0.5c-1.2-0.2-1.7-0.6-2-1.8c-0.1-0.4-0.1-0.8-0.1-1.2
					c0-3.5,0-7,0.2-10.6c0.3-5.8,0.5-11.7,0.5-17.5c0.1-5.3,0.2-10.5,0.3-15.8c0-0.9,0-1.8-0.1-2.8c0-0.4,0-0.7,0-1.1
					c0.1-0.8,0.5-1.4,1.3-1.7c0.4-0.1,0.8-0.2,1.1-0.3c1.9-0.2,3.7-0.2,5.6,0.2c0.4,0.1,0.9,0.2,1.3,0.3c0.8,0.1,1.3,0.6,1.7,1.3
					c0.3,0.7,0.6,1.3,0.8,2c1.6,5.6,3.2,11.3,4.6,17c2,8.2,4.4,16.2,7.7,24c0.4,0.9,0.7,1.7,1.1,2.6c0.1,0.1,0.2,0.3,0.3,0.4
					c0-0.4,0-0.8,0.1-1.1c0.1-2.3,0.2-4.6,0.2-7c0.1-5.1,0.1-10.2,0.2-15.3c0.1-6.7,0.1-13.3,0.2-20c0-0.7,0-1.4-0.1-2.1
					c-0.9,0-1.6,0-2.4,0c-0.4,0-0.8-0.1-1.2-0.3c-0.4-0.2-0.7-0.5-0.6-1c0.1-0.5,0.5-0.7,0.9-0.7c0.4-0.1,0.8-0.1,1.2-0.2
					c2.2-0.1,4.3-0.2,6.5-0.2c0.3,0,0.6,0,0.9,0.1c0.6,0.1,0.9,0.5,0.9,0.9c0,0.5-0.3,0.9-0.9,1c-0.6,0.1-1.2,0.1-1.8,0.2
					c-0.4,0-0.8,0-1.1,0c0,0.7,0,1.3,0,1.9c0,5.9,0,11.8,0,17.7c-0.1,7.2-0.2,14.4-0.3,21.6c0,2.3-0.3,4.6-0.4,6.9
					c0,0.3-0.1,0.7-0.2,1c-0.2,0.6-0.5,1.1-1.2,1.2c-0.7,0.1-1.2-0.1-1.6-0.6c-0.3-0.4-0.5-0.8-0.7-1.2c-0.6-1.5-1.2-3-1.8-4.5
					c-3.2-7.7-5.7-15.6-7.7-23.7c-0.9-3.5-1.8-7-2.7-10.5c-0.1-0.3-0.2-0.5-0.3-0.8C234.9,76.3,234.9,76.3,234.8,76.3z"/>
				<path class="st99" d="M196.4,115.9c0.9,0.1,1.6,0.1,2.4,0.2c0.3,0,0.7,0.1,1,0.2c0.3,0.1,0.6,0.4,0.5,0.8c0,0.4-0.2,0.7-0.6,0.8
					c-0.2,0.1-0.4,0.1-0.6,0.1c-2.2,0-4.5,0-6.7,0c-0.2,0-0.4,0-0.7-0.1c-0.4-0.1-0.7-0.3-0.8-0.8c-0.1-0.4,0.1-0.8,0.6-1
					c0.5-0.1,1-0.2,1.5-0.2c0.3,0,0.5,0,0.9-0.1c-0.4-6.8-0.2-13.6,0-20.4c-3.1-0.1-6.1-0.3-9.2-0.4c0,0.4-0.1,0.8-0.1,1.1
					c0.1,2.7,0.1,5.5,0.2,8.2c0.1,3.1,0.2,6.3,0.3,9.4c0,0.9-0.2,1.7-0.5,2.4c-0.4,0.9-1.1,1.4-2,1.5c-2,0.3-4.1,0.3-6.1,0.1
					c-0.5-0.1-1.1-0.1-1.6-0.1c-1.5,0-2.1-0.6-2.2-2.1c-0.1-1.1-0.1-2.2-0.2-3.4c-0.1-4.9-0.3-9.8-0.4-14.7
					c-0.2-4.4-0.3-8.8-0.1-13.2c0.1-2.8,0-5.7,0.1-8.6c0.1-2.9,0.3-5.8,0.5-8.7c0-0.1,0-0.1,0-0.2c0.2-1.7,0.7-2.1,2.4-2.1
					c2.2,0.1,4.3,0.2,6.5,0.3c0.1,0,0.2,0,0.3,0c2.2,0.3,3.4,1.3,3.4,3.6c0.1,3.5,0.1,7,0.1,10.5c0,3.5-0.2,7-0.3,10.6
					c0,0.9-0.1,1.7-0.2,2.7c3.1,0.3,6.1,0.1,9.2,0.2c0-0.3,0.1-0.5,0.1-0.7c0.1-2,0.1-4,0.2-6c0.1-3.1,0.2-6.1,0.3-9.2
					c0-3-0.1-6-0.1-9.1c0-0.4,0-0.8,0-1.3c0.1-0.7,0.5-1.1,1.1-1c0.5,0,0.9,0.4,1,1c0.1,0.5,0.1,0.9,0.1,1.4
					c0.1,4.1,0.2,8.3,0.1,12.4c0,3-0.3,6.1-0.4,9.1c0,0.9-0.1,1.8-0.1,2.8c0,5.4-0.1,10.8-0.1,16.3c0,2.1,0,4.2,0,6.3
					C196.3,115.1,196.3,115.5,196.4,115.9z"/>
				<path class="st99" d="M271.3,90.4c0.2-0.2,0.3-0.5,0.5-0.7c2.8-4.1,5.2-8.5,7.5-12.9c1.5-2.9,2.8-5.8,4.2-8.7
					c0.3-0.7,0.7-1.4,1-2.1c0.2-0.3,0.4-0.6,0.6-0.8c0.3-0.3,0.8-0.3,1.2-0.1c0.4,0.2,0.6,0.7,0.5,1.2c-0.1,0.3-0.2,0.6-0.3,0.9
					c-3.2,7.4-6.9,14.6-10.9,21.6c-0.9,1.5-1.8,2.9-2.7,4.4c-0.1,0.2-0.3,0.5-0.5,0.7c2.3,2.9,3.7,6.4,5.7,9.5
					c1.3,2,2.6,3.9,3.8,5.9c1,1.6,2,3.2,2.9,4.8c0.1,0.1,0.2,0.2,0.3,0.4c0.5-0.4,1-0.8,1.4-1.2c0.4-0.4,0.9-0.5,1.5-0.5
					c0.8,0,1.2,0.7,0.8,1.3c-0.2,0.3-0.4,0.6-0.6,0.9c-1.3,1.3-2.6,2.6-3.9,3.8c-0.3,0.3-0.8,0.6-1.2,0.8c-0.5,0.2-1,0.1-1.3-0.3
					c-0.3-0.4-0.3-0.8,0-1.3c0.2-0.3,0.4-0.6,0.7-0.8c0.3-0.3,0.6-0.6,1-0.9c-4.7-6.2-8.3-13-11.9-19.7c-0.1,0-0.1,0-0.2,0.1
					c0,0.2-0.1,0.3-0.1,0.5c-0.1,3.8-0.1,7.6-0.3,11.4c-0.1,2.1-0.4,4.2-0.7,6.3c-0.1,0.5-0.3,1.1-0.5,1.6c-0.4,1-1.1,1.6-2.1,1.8
					c-1.5,0.3-3.1,0.6-4.7,0.2c-0.4-0.1-0.8-0.2-1.1-0.3c-1-0.4-1.6-1.1-1.6-2.2c0-0.7,0-1.4,0-2.1c0.1-7.4,0.3-14.8,0.4-22.2
					c0.1-4,0.1-8,0.1-12c0-3.5,0-6.9,0-10.4c0-0.8,0.1-1.6,0.2-2.4c0.2-1.2,0.9-1.8,2.1-1.8c1.9-0.1,3.8,0,5.7,0.4
					c1.3,0.3,2.1,1.1,2.3,2.5c0.1,0.7,0.2,1.5,0.2,2.2c0,6.5-0.1,12.9-0.1,19.4c0,0.3,0,0.6,0,0.9C271.2,90.4,271.3,90.4,271.3,90.4
					z"/>
				<path class="st99" d="M149,68.2c-1.1-0.1-2.2-0.1-3.2-0.2c-0.5,0-1-0.2-1.5-0.3c-0.3-0.1-0.5-0.2-0.7-0.4
					c-0.6-0.6-0.5-1.5,0.3-1.9c0.6-0.2,1.2-0.3,1.8-0.4c0.6-0.1,1.3,0,1.9,0c2.6,0.1,5.2,0.1,7.8,0.2c1.8,0,3.7,0,5.5,0
					c1.5-0.1,2.9-0.3,4.4-0.4c0.7,0,1.5-0.1,2.2,0c1,0,1.6,0.5,1.7,1.3c0.1,0.8-0.5,1.5-1.4,1.7c-1.2,0.3-2.3,0.2-3.5,0.2
					c-0.6,0-1.3,0-2,0c0,0.1-0.1,0.3-0.1,0.4c-0.1,4.9-0.1,9.8-0.3,14.7c-0.1,5.2-0.3,10.3-0.5,15.5c-0.1,3.8-0.1,7.7-0.2,11.5
					c0,1.3-0.2,2.7-0.3,4c-0.1,0.5-0.2,1.1-0.4,1.6c-0.5,1.3-1.4,2.1-2.8,2.1c-1.8,0-3.7-0.1-5.5-0.2c-0.3,0-0.7-0.1-1-0.2
					c-0.7-0.2-1.2-0.7-1.3-1.4c-0.2-1.1-0.5-2.3-0.5-3.4c-0.1-8.4-0.2-16.7-0.2-25.1c0-3.1,0-6.1-0.2-9.2c-0.1-3.1-0.1-6.2-0.1-9.2
					C149,68.9,149,68.6,149,68.2z"/>
				<path class="st99" d="M205.9,91.4c-0.1-5.9-0.1-11.7-0.2-17.6c0-1.5-0.1-3-0.2-4.4c0-0.7,0-1.4,0-2.1c0.1-1.4,0.8-1.9,2.1-2
					c1.5,0,3-0.1,4.5-0.1c0.4,0,0.7,0,1.1,0.1c0.4,0,0.7,0.1,1.1,0.2c1.6,0.4,2.3,1.2,2.4,2.9c0.1,2,0.1,4,0.2,6
					c0.2,6.4,0.6,12.8,0.5,19.3c0,2.8-0.2,5.6-0.2,8.4c0,2,0,4.1-0.1,6.1c0,2.4,0,4.8-0.4,7.2c-0.1,0.4-0.2,0.9-0.3,1.3
					c-0.4,1-1.1,1.5-2.1,1.6c-0.5,0-1,0-1.5,0c-1.4,0-2.8-0.1-4.2-0.2c-2.1-0.1-2.7-0.7-2.8-2.8c-0.1-1.3,0-2.6,0-3.9
					c0-6.6,0-13.1,0-19.7C205.8,91.4,205.8,91.4,205.9,91.4z"/>
			</g>
			<g>
				<path class="st100" d="M107.4,157.4c-1.4-0.4-2.7-0.6-4-1.1c-1-0.3-1.9-0.7-2.8-1.2c-3.1-1.9-4.6-4.6-4.5-8.2
					c0.1-1.8,0.8-3.5,2-4.9c2.1-2.5,4.8-4.1,8-4.8c5.3-1.1,10,0.2,14,3.8c3,2.7,5.3,5.8,7,9.4c0.1,0.2,0.2,0.4,0.3,0.5
					c0,0,0.1,0.1,0.1,0.1c1.9-0.2,3.7-0.8,5.4-1.5c0.6-0.2,1.2-0.5,1.9-0.8c1.4-0.6,2.7-1.4,3.9-2.3c1.2-0.9,2.4-1.8,3.7-2.6
					c1.3-0.8,2.7-1.2,4.2-1c2,0.2,3.5,1.2,4.5,3c0.7,1.3,1.1,2.7,1.2,4.2c0.2,2.2,0,4.4-0.3,6.5c-0.7,5.4-1.4,10.9-2.1,16.3
					c-0.5,4.5-1,9.1-1.4,13.6c-0.2,2.7-0.3,5.4-0.4,8c0,0.7,0,1.4,0.3,2.2c0.6-0.2,1.1-0.6,1.5-1.1c1-1,1.6-2.3,2.2-3.5
					c1.3-2.8,2.2-5.8,2.7-8.9c0.7-4.1,1.3-8.2,1.9-12.3c0.4-2.9,0.8-5.8,1.7-8.5c0.2-0.7,0.5-1.4,0.8-2c0.6-1.5,1.7-2.5,3.2-3.2
					c2-1,4.3-0.5,5.6,1.4c0.9,1.3,1.3,2.7,1.5,4.2c0.4,2.5,0.2,5,0.1,7.5c-0.1,1.9-0.2,3.7-0.3,5.6c-0.3,5.1-0.6,10.2-0.8,15.2
					c-0.1,1.4-0.1,2.8-0.1,4.3c0,0.4,0.1,0.8,0.1,1.2c0.1,0.4,0.3,0.7,0.7,1c0.4-0.4,0.8-0.7,1.1-1.1c0.9-1,1.5-2.2,2-3.4
					c1.4-3.1,2.3-6.3,2.8-9.6c0.6-4,1.1-8,1.5-12.1c0.4-4.4,0.7-8.9,1-13.3c0.3-3.6,0.4-7.3,0.7-10.9c0-0.5,0.1-1,0.1-1.5
					c-0.1,0-0.2,0-0.3,0c-2.9,1.5-5.9,2.4-9,3c-1.4,0.3-2.7,0.6-4.1,0.8c-2.3,0.2-4.6,0.1-6.9-0.5c-0.6-0.1-1.2-0.4-1.6-0.8
					c-1.1-0.8-1-2.2,0.2-2.9c0.7-0.4,1.5-0.5,2.3-0.5c1.3,0.1,2.6,0.3,3.8,0.4c3.5,0.4,7,0.1,10.3-1.1c1.7-0.6,3.3-1.3,4.9-2
					c0.2-0.1,0.4-0.2,0.6-0.4c0-0.2,0-0.5,0-0.7c-0.1-2.2,0-4.4,0.3-6.6c0.3-2.5,1.8-4.1,4.2-4.4c1.5-0.2,2.8,0.3,3.8,1.5
					c0.8,1,1.2,2.2,1.4,3.4c0.1,0.8,0.2,1.5,0.3,2.3c0.1,0,0.1,0.1,0.2,0.1c2-0.8,4.2-1,6.3-1.4c2.1-0.4,4.2-0.8,6.4-1.1
					c2.3-0.3,4.7-0.6,7-0.7c4-0.3,7.9-0.4,11.9-0.3c4.1,0.2,8.1,1,12.1,2.4c5.9,2.1,11.3,4.9,16.3,8.7c1.9,1.5,3.9,2.9,5.9,4.3
					c3,2,6.2,3.7,9.7,4.7c2.3,0.7,4.6,0.9,6.9,1c0.2,0,0.4,0,0.6-0.1c0.4-1.9,0.7-3.7,1.1-5.5c1.2-5.5,2.9-10.8,5.6-15.8
					c0.9-1.6,1.9-3.2,3.2-4.5c1.7-1.8,3.6-3,6.1-3.5c2.9-0.5,5.4,0.9,6.3,3.7c0.6,1.9,0.6,3.9,0.3,5.8c-0.7,4-1.9,7.8-4,11.3
					c-0.8,1.3-1.5,2.7-2.4,4c-0.9,1.5-2.1,2.8-3.5,3.9c-0.3,0.2-0.4,0.4-0.4,0.8c-0.1,1.6-0.2,3.2-0.3,4.9
					c-0.2,3.7-0.4,7.4-0.5,11.1c-0.1,3.4,0,6.8,0,10.2c0,1.6,0.2,3.2,0.2,4.9c0.1,3.3,0.5,6.5,1.7,9.6c0.2,0.4,0.3,0.8,0.5,1.1
					c0.1,0.2,0.3,0.4,0.4,0.6c0.2-0.3,0.4-0.5,0.6-0.7c1.8-2.3,3.1-4.8,4.1-7.5c1.1-3,2.1-6.1,3.1-9.1c0.1-0.4,0.1-0.8,0.1-1.2
					c0-4.2,0.3-8.3,1.2-12.4c0.8-3.5,2.1-6.8,4-9.9c1.9-3,4.4-5.3,7.7-6.7c2.1-0.9,4.3-1.1,6.6-0.4c3.5,1.1,5.8,4,6.2,7.7
					c0.4,3.1-0.7,5.5-2.8,7.6c-2.3,2.2-5,3.5-8.1,4.2c-0.2,0-0.4,0.1-0.6,0.1c-0.1,0-0.2,0.1-0.3,0.1c-0.1,0.5-0.1,1-0.2,1.5
					c-0.2,3.2-0.3,6.3-0.1,9.5c0.2,2.4,0.6,4.8,1.5,7c0.5,1.3,1.2,2.4,2.1,3.4c0.9,0.9,1.9,1.2,3.1,1c1.3-0.3,2.4-0.9,3.4-1.7
					c1.6-1.3,3-2.9,4.2-4.5c2-2.6,3.9-5.4,5.5-8.2c1.1-1.9,2.3-3.7,3.4-5.6c0.5-0.8,0.8-1.6,1.3-2.3c0.2-0.4,0.5-0.7,0.8-1
					c0.5-0.5,1.2-0.5,1.8-0.2c0.6,0.3,1,1,0.8,1.7c-0.1,0.5-0.3,1-0.5,1.4c-1.3,2.4-2.7,4.9-4.1,7.3c-1.3,2.4-2.7,4.7-4,7.1
					c-2.3,4.2-5.4,7.8-9,11c-2.2,1.9-4.6,3.1-7.5,3.4c-4.5,0.5-8.4-1-11.5-4.3c-2.1-2.3-3.3-5-4.1-8c-0.1-0.3-0.2-0.6-0.3-1.1
					c-0.2,0.4-0.3,0.7-0.4,0.9c-0.9,2.2-1.7,4.4-2.7,6.6c-0.8,1.9-1.9,3.6-3.2,5.2c-0.9,1.1-1.9,2-3.1,2.6c-1,0.5-2.1,0.6-3.3,0.4
					c-2.1-0.4-3.7-1.6-5-3.2c-1.3-1.5-2.1-3.2-2.8-5c-0.1-0.4-0.3-0.7-0.5-1.2c-0.2,0.4-0.4,0.7-0.6,1c-1.1,2.1-2.6,3.9-4.4,5.5
					c-1.5,1.3-3.1,2.2-5,2.5c-2.4,0.4-4.5-0.1-6.2-1.8c-2-2-3.2-4.4-4-7c-1.1-3.6-1.7-7.2-1.7-11c0-0.4,0-0.9-0.1-1.4
					c-0.1,0.2-0.2,0.3-0.3,0.5c-0.6,1.4-1.3,2.9-1.9,4.3c-1.5,3.1-3.3,6-5.6,8.7c-1.3,1.5-2.7,2.9-4.5,4c-2.7,1.6-6.1,0.6-7.4-2.3
					c-0.6-1.3-0.8-2.7-1-4.1c-0.6-4.6-0.8-9.3-0.6-14c0.1-2.7,0.1-5.4,0.1-8.1c0-2.5,0.1-5.1,0.2-7.6c0-0.7,0.1-1.4,0-2.2
					c-0.1,0.2-0.2,0.3-0.3,0.5c-0.8,1.6-1.6,3.2-2.5,4.8c-2.1,3.8-4.7,7.2-7.9,10.2c-0.9,0.8-1.7,1.6-2.6,2.5
					c0.2,0.3,0.4,0.6,0.6,0.8c1.4,1.9,2.7,3.8,3.7,5.9c1.2,2.3,1.9,4.7,2.2,7.2c0.3,3.4-0.7,6.2-3.5,8.3c-1.5,1.1-3.1,2.1-5,2.4
					c-2.5,0.4-5,0.1-7.2-1.1c-3.5-1.9-5-5.3-4.2-9.2c0.5-2.4,1.5-4.5,2.8-6.5c0.6-0.9,1.3-1.8,1.9-2.7c-2-2.1-3.9-4.1-5.9-6.3
					c-0.1,0.3-0.3,0.5-0.4,0.8c-1.5,3-3,5.9-4.6,8.9c-1,1.8-2,3.5-3.1,5.2c-1,1.6-2.2,3-3.6,4.2c-0.8,0.7-1.6,1.2-2.6,1.4
					c-1.4,0.3-2.7-0.1-3.8-0.8c-1.4-0.9-2.4-2.2-3.2-3.7c-0.9-1.9-1.5-3.9-1.9-5.9c-0.3-1.8-0.5-3.6-0.7-5.4c0-0.4-0.1-0.7-0.2-1.1
					c-0.6,2.6-1.1,5-1.7,7.5c-0.6,2.6-1.5,5.2-2.7,7.7c-0.6,1.2-1.3,2.4-2.2,3.4c-0.4,0.4-0.8,0.8-1.2,1.2c-1.7,1.3-3.5,1.5-5.4,0.5
					c-1.6-0.8-2.7-2-3.5-3.5c-1.2-2.1-2-4.3-2.5-6.7c-0.4-2.2-0.7-4.4-0.7-6.6c0-0.7,0-1.4-0.1-2.1c-0.1,0.1-0.2,0.3-0.2,0.4
					c-0.8,2.7-1.5,5.4-2.4,8c-0.6,1.9-1.5,3.7-2.5,5.4c-0.8,1.3-1.6,2.4-2.8,3.3c-1.7,1.4-3.5,1.7-5.6,0.9c-1.3-0.6-2.5-1.4-3.3-2.6
					c-1.5-2-2.3-4.3-2.9-6.7c-0.9-3.4-1.4-7-1.6-10.5c-0.3-5.9,0.1-11.7,0.8-17.5c0.4-3.5,0.9-7,1.7-10.5c0.2-0.9,0.5-1.9,0.8-3
					c-3.9,2.3-7.9,4.1-12,5.7c0.3,1,0.5,2,0.8,3c1.2,4.8,1.5,9.7,1.2,14.6c-0.3,5.2-1.5,10.3-3.7,15.1c-1.2,2.7-2.9,5.2-5,7.3
					c-1.8,1.8-4,2.9-6.6,3.1c-1.1,0.1-2.2-0.1-3.3-0.4c-2.7-0.9-4.9-2.6-6.5-4.9c-1.9-2.7-2.9-5.7-3.5-8.9c-0.5-2.7-0.7-5.4-0.5-8.2
					c0.4-4.6,1.4-9,3.4-13.1c0.7-1.4,1.5-2.7,2.3-4.1C107.3,157.7,107.4,157.6,107.4,157.4z M215.8,175.6c1.6-1.3,5.1-4.9,6.7-6.9
					c1.8-2.3,3.4-4.8,4.4-7.6c0.6-1.6,1.2-3.1,1.8-4.7c0.4-1.1,0.8-2.3,1.3-3.4c0.5-1,1-2,1.6-2.8c2-2.6,7-3.2,8.6,1.4
					c0.4,1.1,0.6,2.1,0.8,3.2c0.5,2.5,0.6,5.1,0.6,7.6c0.1,5.9-0.1,11.9-0.3,17.8c-0.2,3.4-0.3,6.9-0.4,10.3c0,0.3,0.1,0.7,0.2,0.7
					c0.3,0.1,0.6,0,0.8-0.2c0.4-0.3,0.7-0.7,1-1.1c1.8-2.5,3.2-5.2,4.5-8c1.8-4.2,3.7-8.4,5.9-12.5c0.6-1.2,1.3-2.4,2-3.5
					c0.4-0.6,0.8-1.2,1.3-1.7c2.1-2.1,4.5-2.7,7.3-1.8c2.1,0.7,4,1.8,5.8,3.1c0.2,0.2,0.5,0.3,0.8,0.6c0.1-2.2,0.3-4.2,0.4-6.3
					c-0.2,0-0.4,0-0.5,0c-2.3,0.3-4.5,0-6.7-0.5c-3.2-0.8-6.1-2.2-8.9-4c-3.3-2-6.3-4.3-9.3-6.7c-3-2.3-6.1-4.7-9.3-6.7
					c-5.9-3.6-12.2-5.6-19.1-5.9c-3.4-0.2-6.7,0-10,0.4c-6,0.7-11.9,2.1-17.7,4.1c-0.3,0.1-0.5,0.2-0.8,0.3c0,0.9,0,1.8,0,2.7
					c-0.1,4.7-0.3,9.4-0.4,14.2c-0.1,6-0.2,12,0.1,18c0.2,3.7,0.3,7.4,0.6,11.1c0.1,1.4,0.3,2.8,0.5,4.2c0.1,0.9,0.7,1.1,1.5,0.6
					c0.4-0.3,0.7-0.6,1-1c0.6-0.9,1.3-1.8,1.8-2.7c2.7-4.3,4.9-8.8,7.1-13.4c0-0.1,0-0.2,0.1-0.3c-0.3-0.4-0.7-0.8-1-1.3
					c-1.5-1.8-2.8-3.8-3.7-6c-0.7-1.7-1-3.6-1.3-5.4c-0.6-3.4-0.6-6.8,0.3-10.2c0.8-3.1,2-5.9,4.1-8.2c1.5-1.6,3.2-2.9,5.3-3.5
					c1.4-0.4,2.7-0.3,3.9,0.5c2.1,1.4,3.8,3.1,4.5,5.6c0.3,1.1,0.4,2.3,0.5,3.4c0,2.2-0.3,4.5-0.9,6.6c-0.7,2.6-1.8,5.1-3,7.5
					c-0.4,0.8-0.8,1.7-1.2,2.5C210.4,169.4,213.2,172.4,215.8,175.6z M126.8,155.1c-2.1,0.5-4,1-6,1.6c-0.2,0.1-0.4,0.3-0.5,0.5
					c-1.4,2.4-2.7,4.9-3.5,7.6c-1.2,4-2.2,8.1-3,12.2c-0.7,3.3-1,6.6-0.8,10c0.1,1.7,0.4,3.4,1.2,4.9c0.4,0.9,1.1,1.7,2,2.2
					c0.9,0.5,1.9,0.6,2.8-0.1c0.5-0.4,1.1-0.7,1.5-1.2c2-1.8,3.6-3.9,4.8-6.3c1.7-3.6,2.8-7.3,3.3-11.2c0.7-5.6,0.4-11.2-0.9-16.7
					C127.5,157.4,127.1,156.3,126.8,155.1z M262.8,187.6c0,0.8,0,1.6,0,2.4c0.1,1.5,0.3,3,0.8,4.3c0.6,1.4,1.1,1.5,2.4,0.8
					c1-0.6,1.9-1.4,2.7-2.3c1.4-1.5,2.4-3.4,3.4-5.2c0.1-0.2,0.1-0.6,0.1-0.9c-0.7-3.9-1.2-7.8-1.4-11.8c-0.1-1.4-0.1-2.7-0.2-4.1
					c0-0.3,0-0.5-0.3-0.7c-1.1-0.8-2.5-0.7-3.3,0.3c-0.7,0.8-1.3,1.8-1.6,2.8C263.8,177.9,262.7,182.7,262.8,187.6z M206.9,162.7
					c1.1-2.2,2.1-4.4,2.8-6.6c0.8-2.4,1.2-4.9,1-7.4c-0.1-1.3-0.3-2.6-1-3.8c-1.4-2.3-3.2-2.1-4.9-0.5c-0.3,0.3-0.5,0.6-0.7,1
					c-0.3,0.5-0.5,1-0.7,1.5c-0.7,2-0.7,4.1-0.4,6.2C203.4,156.6,205.1,159.5,206.9,162.7z M210.4,184.9c-0.7,1-1.3,1.9-1.9,2.8
					c-1.1,1.8-1.8,3.8-2,5.9c-0.2,2,1,4.3,2.9,5.1c1.5,0.7,3.2,1.1,4.9,0.7c2.4-0.5,3.6-2.2,3.2-4.4c-0.2-1.3-0.7-2.5-1.6-3.6
					c-1.1-1.4-2.4-2.8-3.6-4.2C211.7,186.5,211.1,185.7,210.4,184.9z M125.2,151.4c0-0.1,0-0.2,0-0.2c-0.1-0.2-0.2-0.4-0.3-0.6
					c-1.4-2.8-3.4-5.2-5.6-7.4c-1-1-2.2-1.6-3.6-1.9c-1.3-0.3-2.5-0.1-3.5,0.8c-1.2,1.1-1.8,2.6-2,4.1c-0.2,1.7,0.3,2.9,1.8,3.7
					c0.8,0.4,1.6,0.7,2.4,0.9c3.3,0.8,6.7,0.8,10.1,0.6C124.8,151.5,125,151.4,125.2,151.4z M309,166.2c0.7-0.2,1.2-0.4,1.6-0.6
					c2.8-1.3,4.8-3.4,5.3-6.6c0.2-1.1,0-2.1-0.5-3.1c-0.5-0.9-0.9-1-1.8-0.6c-1,0.4-1.6,1.2-2.1,2.1c-0.8,1.4-1.3,2.8-1.7,4.3
					C309.3,163.1,309.1,164.6,309,166.2z M284.6,148.2c0.1,0,0.1,0.1,0.2,0.1c0.1,0,0.1-0.1,0.2-0.1c1.5-1.6,2.8-3.4,3.6-5.4
					c1-2.5,1.5-5.1,1.7-7.7c0.1-1-0.1-2-0.1-3c0-0.4-0.2-0.8-0.7-1.1c-0.4,0.5-0.8,1-1,1.5c-0.4,0.7-0.7,1.5-0.9,2.3
					c-0.5,1.8-0.9,3.6-1.3,5.4C285.6,142.8,285.1,145.5,284.6,148.2z"/>
				<path class="st100" d="M237,134.5c-2.4,0.1-3.9-1.1-4.9-3.2c-1-1.9-0.7-4.2,1-5.7c0.9-0.8,1.9-1.3,3.1-1.4
					c2.2-0.2,4.1,0.6,5.3,2.5c1.1,1.6,1.3,3.3,0.4,5c-0.9,1.8-2.4,2.7-4.3,2.8C237.4,134.5,237.2,134.5,237,134.5z"/>
			</g>
		</g>
		<g>
			<g>
				<path class="st101" d="M147.9,357.7c0.1,1.5-0.2,3.1-0.9,4.5c-0.4,1-1.1,1.9-1.9,2.6c-1.5,1.2-3.1,1.4-4.9,0.8
					c-1.3-0.4-2.4-1.3-3.2-2.4c-1.2-1.7-1.8-3.6-1.8-5.7c-0.1-2.6,0.5-5,1.8-7.3c0.7-1.2,1.7-2.1,3.1-2.5c1.8-0.4,3.3,0.1,4.5,1.3
					c1.3,1.2,2.2,2.8,2.7,4.6C147.7,355,147.9,356.3,147.9,357.7z"/>
				<path class="st101" d="M120.7,354.3c0,0.3,0,0.6,0,0.9c0,2.7,0,5.4-0.1,8c0,0.5-0.1,0.9-0.2,1.4c-0.1,0.5-0.5,0.8-0.9,0.8
					c-0.4,0-0.8-0.3-0.8-0.9c-0.1-0.9-0.2-1.9-0.3-2.8c-0.1-3.4-0.2-6.8-0.3-10.2c0-0.4,0-0.8,0.1-1.2c0.3-1.1,1.4-1.5,2.3-0.9
					c0.6,0.4,1.1,0.9,1.5,1.5c1.2,1.8,2.3,3.6,3.4,5.4c1,1.6,2,3.3,3,4.9c0.2,0.2,0.3,0.5,0.6,0.9c0.1-0.4,0.1-0.6,0.1-0.8
					c0.1-3.7,0.2-7.4,0.3-11.1c0-0.4,0.1-0.8,0.2-1.2c0.2-0.6,0.8-0.9,1.4-0.8c0.5,0.1,0.9,0.5,1,1.1c0,0.2,0,0.4,0,0.6
					c-0.1,3.8-0.1,7.5-0.2,11.3c0,0.9-0.2,1.7-0.3,2.6c-0.1,0.4-0.2,0.8-0.4,1.1c-0.5,1-1.5,1.3-2.4,0.8c-0.4-0.2-0.7-0.5-1-0.8
					c-1.1-1.1-1.9-2.3-2.6-3.6c-1-1.7-1.9-3.4-2.9-5c-0.4-0.7-0.8-1.4-1.3-2C120.8,354.2,120.8,354.3,120.7,354.3z"/>
			</g>
			<g>
				<path class="st101" d="M182.9,357.7c0.1,1.5-0.2,3.1-0.9,4.5c-0.4,1-1.1,1.9-1.9,2.6c-1.5,1.2-3.1,1.4-4.9,0.8
					c-1.3-0.4-2.4-1.3-3.2-2.4c-1.2-1.7-1.8-3.6-1.8-5.7c-0.1-2.6,0.5-5,1.8-7.3c0.7-1.2,1.7-2.1,3.1-2.5c1.8-0.4,3.3,0.1,4.5,1.3
					c1.3,1.2,2.2,2.8,2.7,4.6C182.8,355,183,356.3,182.9,357.7z"/>
				<path class="st101" d="M164,355.6c0.4,0.2,0.7,0.3,0.9,0.4c1.2,0.5,2.2,1.3,2.9,2.4c1,1.5,1,3.1,0.1,4.7c-1.1,1.9-2.9,3-5,3.4
					c-1.2,0.3-2.5,0.3-3.7,0.4c-0.9,0.1-1.6-0.4-2.1-1c-0.2-0.3-0.4-0.7-0.4-1.1c-0.1-1.5-0.3-3-0.3-4.5c-0.1-3.4,0-6.9-0.1-10.3
					c0-0.3,0-0.5,0-0.8c0.1-1.4,0.9-2.5,2.3-2.7c2.1-0.3,4.1,0.1,5.8,1.4c1.5,1,2,2.8,1.6,4.5C165.6,353.7,164.9,354.7,164,355.6z
					 M159.2,358.1c0,2.1-0.1,4,0.3,6c1.5,0,2.9-0.1,4.2-0.8c0.7-0.3,1.3-0.8,1.8-1.5c0.5-0.7,0.4-1.3-0.1-2
					c-0.5-0.7-1.3-1.2-2.1-1.4C161.9,357.9,160.6,358.1,159.2,358.1z M159.1,349.3c0,2,0,3.9,0,5.9c1.5-0.5,2.7-1.2,3.6-2.4
					c0.2-0.3,0.3-0.6,0.4-0.9c0.3-0.8,0-1.5-0.7-1.9C161.5,349.5,160.4,349.2,159.1,349.3z"/>
				<path class="st101" d="M191.7,354.4c0.4-0.6,0.7-1.1,1-1.6c0.9-1.4,1.7-2.7,2.6-4.1c0.2-0.4,0.6-0.7,0.9-1
					c0.4-0.4,1-0.4,1.5-0.1c0.5,0.3,0.7,0.8,0.5,1.5c-0.1,0.4-0.4,0.8-0.6,1.2c-1.4,2.2-2.8,4.3-4.2,6.5c0.2,0.2,0.3,0.4,0.4,0.6
					c1.3,1.6,2.5,3.2,3.8,4.8c0,0,0,0,0.1,0.1c0.6,0.8,0.7,1.6,0.1,2.1c-0.6,0.5-1.4,0.5-2.1-0.2c-1.1-1.2-2.1-2.5-3.1-3.7
					c-0.2-0.3-0.4-0.6-0.7-0.9c-0.2,0.3-0.4,0.5-0.5,0.7c-0.8,1.3-1.7,2.6-2.6,3.9c-0.3,0.5-0.7,0.9-1.1,1.3
					c-0.6,0.6-1.4,0.7-1.9,0.2c-0.5-0.4-0.6-1.1-0.1-1.8c0.4-0.6,0.8-1.2,1.2-1.8c1-1.7,2.1-3.3,3.1-5c-0.2-0.3-0.4-0.5-0.5-0.8
					c-1.4-2-2.8-4-4.2-6c-0.3-0.4-0.5-0.8-0.7-1.2c-0.2-0.5-0.1-1.1,0.3-1.4c0.4-0.3,1-0.4,1.5-0.1c0.4,0.3,0.7,0.6,1,1
					c1.2,1.6,2.3,3.2,3.5,4.8C191.2,353.7,191.4,354,191.7,354.4z"/>
			</g>
			<g>
				<path class="st101" d="M246.2,364.9c-0.1,0.1-0.2,0.2-0.4,0.3c-5.5,4.4-12,0.7-13.2-4.6c-0.8-3.8-0.4-7.4,1.5-10.9
					c1.1-2.1,2.9-3.1,5.2-3.4c2.8-0.4,5.1,0.7,6.8,2.9c2.8,3.8,3.6,8,2,12.5c-0.1,0.2-0.1,0.3-0.2,0.5c0.5,0.4,1,0.7,1.5,1.1
					c0.2,0.2,0.5,0.4,0.6,0.7c0.2,0.4,0.2,0.8,0,1.2c-0.3,0.4-0.7,0.6-1.2,0.5C248,365.6,247.2,365.3,246.2,364.9z M245.5,360.8
					c0.1-0.4,0.3-0.7,0.3-1c0.7-3.3,0-6.3-2.1-8.9c-0.3-0.4-0.8-0.8-1.3-1.1c-1.3-0.8-2.7-0.9-4.1-0.1c-1.2,0.7-2,1.8-2.6,3.1
					c-1,2.5-1,5.1-0.3,7.7c0.7,2.4,3.2,4.1,5.5,3.9c1.1-0.1,2-0.5,2.9-1.2c-0.7-0.5-1.4-0.9-2-1.4c-0.3-0.2-0.7-0.5-1-0.8
					c-0.4-0.5-0.5-1-0.2-1.5c0.3-0.5,0.9-0.7,1.5-0.5c0.5,0.2,0.9,0.4,1.4,0.6C244.2,359.9,244.8,360.3,245.5,360.8z"/>
				<path class="st101" d="M297.4,357.1c0-2.1,0-4.1,0-6.2c0-0.3,0-0.6,0-0.8c0-1.9,1.1-3,3.1-2.9c2.6,0.2,4.7,1.2,6.3,3.3
					c2.2,3,2.7,6.3,1.4,9.9c-0.5,1.4-1.3,2.7-2.3,3.8c-1.1,1.2-2.4,2-4,2.4c-0.6,0.2-1.2,0.3-1.9,0.5c-1.1,0.3-2-0.3-2.3-1.4
					c-0.2-0.6-0.2-1.2-0.2-1.7C297.4,361.6,297.4,359.3,297.4,357.1C297.4,357.1,297.4,357.1,297.4,357.1z M300.9,363.7
					c0.7-0.1,1.2-0.4,1.8-0.7c1.6-1.1,2.6-2.6,3.1-4.5c0.7-2.4,0.2-4.6-1.3-6.6c-1-1.3-2.3-1.9-3.9-2c0,0.3-0.1,0.5-0.1,0.8
					C300.6,355,300.7,359.3,300.9,363.7z"/>
				<path class="st101" d="M211.8,358.2c0.3,0.3,0.5,0.5,0.7,0.7c1.4,1.3,2.8,2.6,4.1,3.9c0.4,0.4,0.7,0.8,1,1.2
					c0.4,0.6,0.4,1.3,0,1.7c-0.4,0.4-1,0.5-1.6,0.1c-0.5-0.3-1-0.6-1.4-1c-1.3-1.1-2.5-2.3-3.7-3.5c-0.2-0.2-0.4-0.4-0.7-0.7
					c0,0.2-0.1,0.4-0.1,0.5c-0.1,1.3-0.2,2.6-0.3,3.9c-0.1,0.7-0.6,1.1-1.2,1.2c-0.6,0.1-1.2-0.3-1.4-0.9c-0.1-0.3-0.1-0.6-0.1-0.9
					c0.1-3.9,0.2-7.7,0.3-11.6c0-0.9,0.1-1.9,0.2-2.8c0.1-1.7,1.2-2.9,2.9-2.9c2.4-0.1,4.4,0.8,5.8,2.8c0.8,1.1,0.9,2.3,0.5,3.5
					c-0.5,1.6-1.4,2.9-2.9,3.7C213.1,357.5,212.5,357.9,211.8,358.2z M210.3,355.8c0.8-0.4,1.5-0.8,2.2-1.2c0.7-0.4,1.1-1.1,1.4-1.8
					c0.2-0.6,0.1-1.1-0.3-1.6c-0.7-0.8-1.6-1.2-2.7-1.3c-0.2,0-0.4,0.1-0.6,0.1C210.3,351.9,210.3,353.7,210.3,355.8z"/>
				<path class="st101" d="M251.4,355.2c0.1-2.2,0.2-4,0.3-5.8c0-0.4,0.1-0.8,0.2-1.2c0.2-0.6,0.8-1,1.3-1c0.6,0.1,1.1,0.6,1.2,1.3
					c0,0.4,0,0.8,0,1.3c-0.1,1.9-0.2,3.9-0.2,5.8c0,1.5,0.1,3,0.3,4.5c0.1,1,0.6,2,1.3,2.7c0.7,0.7,1.3,0.8,2.1,0.1
					c0.4-0.4,0.8-0.9,1.1-1.5c0.7-1.4,0.9-2.9,1-4.4c0.3-2.3,0.2-4.6,0-6.9c0-0.7,0-1.3,0-2c0-0.2,0.1-0.4,0.1-0.7
					c0.3-0.8,1.2-1,1.8-0.3c0.2,0.2,0.3,0.5,0.4,0.7c0.2,0.8,0.4,1.6,0.5,2.4c0.3,3,0.2,6-0.3,9c-0.3,1.4-0.7,2.8-1.4,4
					c-0.6,1.1-1.5,2-2.7,2.5c-1.2,0.5-2.4,0.5-3.5-0.2c-1.2-0.8-2.1-1.8-2.6-3.2c-0.5-1.1-0.7-2.2-0.8-3.3
					C251.5,357.6,251.4,356.2,251.4,355.2z"/>
				<path class="st101" d="M222.6,355.8c1.5,0.2,2.9,0.3,4.3,0.5c0.5,0.1,0.9,0.1,1.4,0.2c0.7,0.2,1.1,0.7,1,1.3
					c-0.1,0.6-0.5,1-1.2,1.1c-1.1,0.2-2.3,0-3.4-0.1c-0.7-0.1-1.3-0.2-2.1-0.3c0,1.7,0.2,3.3,0.4,5.1c1.1,0.1,2.2,0.2,3.3,0.3
					c0.6,0.1,1.2,0,1.8,0.1c0.4,0.1,0.9,0.2,1.3,0.4c0.4,0.2,0.7,0.5,0.7,1.1c0,0.5-0.3,0.8-0.8,1c-0.3,0.1-0.7,0.3-1,0.3
					c-1.9-0.1-3.8-0.2-5.7-0.5c-1.7-0.2-2.3-0.9-2.4-2.6c-0.2-2.4-0.4-4.8-0.5-7.3c-0.1-1.4,0-2.7,0-4.1c0-0.7,0.1-1.3,0.2-2
					c0.2-1.1,0.8-1.9,1.9-2.2c1.9-0.5,3.8-0.8,5.7-0.4c0.3,0.1,0.7,0.2,0.9,0.3c0.6,0.3,0.7,1,0.2,1.4c-0.3,0.2-0.6,0.4-0.9,0.5
					c-0.7,0.1-1.3,0.2-2,0.2c-0.9,0.1-1.7,0.3-2.6,0.4c-0.4,0.1-0.5,0.2-0.6,0.6C222.5,352.8,222.4,354.3,222.6,355.8z"/>
				<path class="st101" d="M276.5,358.2c0.3,0.3,0.5,0.5,0.7,0.7c1.4,1.3,2.8,2.6,4.1,3.9c0.4,0.4,0.7,0.8,1,1.2
					c0.4,0.6,0.4,1.3,0,1.7c-0.4,0.4-1,0.5-1.6,0.1c-0.5-0.3-1-0.6-1.4-1c-1.3-1.1-2.5-2.3-3.7-3.5c-0.2-0.2-0.4-0.4-0.7-0.7
					c0,0.2-0.1,0.4-0.1,0.5c-0.1,1.3-0.2,2.6-0.3,3.9c-0.1,0.7-0.6,1.1-1.2,1.2c-0.6,0.1-1.2-0.3-1.4-0.9c-0.1-0.3-0.1-0.6-0.1-0.9
					c0.1-3.9,0.2-7.7,0.3-11.6c0-0.9,0.1-1.9,0.2-2.8c0.1-1.7,1.2-2.9,2.9-2.9c2.4-0.1,4.4,0.8,5.8,2.8c0.8,1.1,0.9,2.3,0.5,3.5
					c-0.5,1.6-1.4,2.9-2.9,3.7C277.8,357.5,277.2,357.9,276.5,358.2z M275.1,355.8c0.8-0.4,1.5-0.8,2.2-1.2c0.7-0.4,1.1-1.1,1.4-1.8
					c0.2-0.6,0.1-1.1-0.3-1.6c-0.7-0.8-1.6-1.2-2.7-1.3c-0.2,0-0.4,0.1-0.6,0.1C275.1,351.9,275.1,353.7,275.1,355.8z"/>
				<path class="st101" d="M287.3,355.8c1.5,0.2,2.9,0.3,4.3,0.5c0.5,0.1,0.9,0.1,1.4,0.2c0.7,0.2,1.1,0.7,1,1.3
					c-0.1,0.6-0.5,1-1.2,1.1c-1.1,0.2-2.3,0-3.4-0.1c-0.7-0.1-1.3-0.2-2.1-0.3c0,1.7,0.2,3.3,0.4,5.1c1.1,0.1,2.2,0.2,3.3,0.3
					c0.6,0.1,1.2,0,1.8,0.1c0.4,0.1,0.9,0.2,1.3,0.4c0.4,0.2,0.7,0.5,0.7,1.1c0,0.5-0.3,0.8-0.8,1c-0.3,0.1-0.7,0.3-1,0.3
					c-1.9-0.1-3.8-0.2-5.7-0.5c-1.7-0.2-2.3-0.9-2.4-2.6c-0.2-2.4-0.4-4.8-0.5-7.3c-0.1-1.4,0-2.7,0-4.1c0-0.7,0.1-1.3,0.2-2
					c0.2-1.1,0.8-1.9,1.9-2.2c1.9-0.5,3.8-0.8,5.7-0.4c0.3,0.1,0.7,0.2,0.9,0.3c0.6,0.3,0.7,1,0.2,1.4c-0.3,0.2-0.6,0.4-0.9,0.5
					c-0.7,0.1-1.3,0.2-2,0.2c-0.9,0.1-1.7,0.3-2.6,0.4c-0.4,0.1-0.5,0.2-0.6,0.6C287.2,352.8,287.1,354.3,287.3,355.8z"/>
				<path class="st101" d="M268.6,356.4c0,2.5,0,5.1,0,7.6c0,0.4-0.1,0.8-0.2,1.2c-0.2,0.6-0.7,1-1.2,0.9c-0.6,0-1-0.4-1.2-0.9
					c-0.1-0.3-0.2-0.7-0.2-1c0-5.2,0-10.5,0-15.7c0-0.4,0.1-0.8,0.2-1.2c0.2-0.5,0.6-0.8,1.1-0.8c0.6,0,1,0.3,1.2,0.8
					c0.1,0.3,0.2,0.7,0.2,1.1C268.6,351.2,268.6,353.8,268.6,356.4C268.6,356.4,268.6,356.4,268.6,356.4z"/>
			</g>
		</g>
	</g>
	<g>
		<path class="st102" d="M159.1,227c-0.3,0.9-0.2,1.7,0,2.6c0.4,1.6,1.1,3.1,2.1,4.4c0.8,1,1.6,2.1,2.5,3c1.2,1.3,2.2,2.6,2.9,4.2
			c1.2,2.7,3.3,4.5,6.1,5.6c0.8,0.3,1.5,0.7,2.3,1c0.7,0.3,0.9,0.7,0.7,1.1c-0.2,0.4-0.6,0.7-1.3,0.5c-1-0.3-2.1-0.7-3.2-1.1
			c-0.9,1.5-2.4,2.6-3.7,3.8c-0.2,0.2-0.4,0.4-0.7,0.5c-0.3,0.2-0.7,0.1-0.9-0.2c-0.3-0.3-0.3-0.6-0.1-0.9c0.1-0.2,0.3-0.4,0.4-0.5
			c1-1.1,2-2.2,3-3.3c0.1-0.1,0.2-0.2,0.3-0.4c-0.7-0.5-1.3-1-1.9-1.4c-0.1,0-0.2,0.1-0.2,0.1c-1.2,1.8-2.8,3.1-4.4,4.4
			c-1,0.8-2,1.6-3,2.4c-0.6,0.4-1,0.5-1.3,0.1c-0.3-0.3-0.2-0.8,0.3-1.3c1.3-1.4,2.7-2.7,4-4c1-1,2.1-2,3.1-3
			c-0.7-1-1.4-1.9-2.1-2.8c-0.1,0-0.2,0.1-0.2,0.2c-3.5,3.6-7.3,6.8-11.3,9.7c-0.9,0.7-2,1.3-2.9,1.9c-0.7,0.4-1.1,0.4-1.4,0
			c-0.2-0.4-0.1-0.8,0.5-1.3c2-1.7,4.1-3.4,6.1-5.1c2.8-2.4,5.5-4.9,8.2-7.3c0,0,0-0.1,0.1-0.2c-0.3-0.5-0.7-1.1-1.1-1.7
			c-0.3-0.4-0.5-0.8-0.9-1.3c-0.3,0.4-0.5,0.7-0.8,1c-2.6,2.4-5.4,4.7-8.6,6.4c0,0-0.1,0.1-0.1,0.1c-0.6,0.3-0.9,0.3-1.2-0.1
			c-0.3-0.4-0.2-0.8,0.2-1.2c0.6-0.6,1.3-1.1,1.9-1.6c2.3-1.8,4.6-3.6,6.9-5.4c0.2-0.1,0.3-0.3,0.5-0.4c-0.7-0.8-1.4-1.6-2.1-2.5
			c-0.2,0.2-0.3,0.4-0.4,0.6c-2.9,3-6.2,5.6-9.8,7.7c-0.3,0.2-0.6,0.4-1,0.6c-0.4,0.2-0.8,0.2-1.1-0.1c-0.3-0.4-0.2-0.7,0.1-1
			c0.6-0.6,1.2-1.2,1.8-1.7c3.3-2.4,6.2-5.2,9.2-7.9c0.2-0.2,0.3-0.4,0.3-0.7c-0.1-0.8,0-1.6,0-2.4c-0.2,0.2-0.4,0.3-0.6,0.4
			c-1.4,1.2-2.8,2.4-4.2,3.6c-1.5,1.3-3.1,2.4-4.9,3.3c-0.5,0.2-1,0.4-1.6,0.6c-0.2,0.1-0.5,0.1-0.7,0c-0.2-0.1-0.5-0.2-0.6-0.4
			c-0.1-0.3,0.1-0.5,0.4-0.6c1.2-0.4,2.1-1.1,3.1-1.8c1.1-0.8,2.2-1.7,3.2-2.7c1.5-1.3,3-2.8,4.6-4.1c0.7-0.6,1.5-1,2.3-1.4
			c1.3-0.6,2.7-0.4,4,0.1c1.2,0.5,2.2,1.2,3.2,2c0.7,0.6,1.4,1.2,2,1.9c0.5,0.6,1,0.6,1.8,0.4c1.8-0.6,3.5-1.3,5.2-2.1
			c1.5-0.7,3.1-1.3,4.6-1.9c1.4-0.5,2.9-0.5,4.4-0.4c2.9,0.4,5.9,0.5,8.9,0.3c2.3-0.1,4.5,0.1,6.7,0.7c2.2,0.6,4.2,1.7,5.9,3.2
			c1.7,1.5,3.2,3.2,4.6,5c0.8,1.1,1.7,2.2,2.5,3.3c0.2,0.2,0.3,0.4,0.5,0.7c1.3-0.5,2.6-1.2,3.7-2c1.3-1,2.6-2.1,3.7-3.4
			c0.8-0.9,1.7-1.7,2.5-2.6c1.6-1.5,3.6-2.5,5.7-3.2c1.9-0.6,3.7-0.3,5.2,1c0.8,0.7,1.5,1.4,2.2,2.2c1.1,1.3,2.2,2.6,3.3,3.9
			c3.7,4.6,8,8.6,12.6,12.2c1.3,1,2.6,2.1,3.9,3.1c0.3,0.2,0.5,0.4,0.7,0.7c0.3,0.4,0.2,0.9,0,1.2c-0.3,0.3-0.7,0.4-1.2,0.2
			c-0.1-0.1-0.2-0.1-0.4-0.2c-3.3-2.3-6.7-4.6-9.8-7.2c-3.3-2.8-6.3-6-9-9.4c-0.9-1.1-1.8-2.3-2.7-3.4c-0.5-0.6-1-1.1-1.6-1.6
			c-0.7-0.7-1.6-1-2.6-0.6c-1.1,0.4-2.1,0.9-3.2,1.3c-0.3,0.1-0.4,0.4-0.4,0.8c-0.1,1.5,0.2,2.9,1,4.2c0.5,0.9,1.2,1.9,1.9,2.6
			c1.1,1.2,2.4,2.3,3.7,3.3c3.2,2.4,6.4,4.8,9.6,7.2c0.6,0.5,1.3,1,1.9,1.5c0.2,0.2,0.4,0.4,0.6,0.6c0.2,0.3,0.3,0.6,0.1,0.9
			c-0.2,0.4-0.6,0.4-1,0.3c-0.3-0.1-0.6-0.2-0.8-0.4c-1.1-0.7-2.2-1.5-3.4-2.3c-0.1,0.1-0.3,0.2-0.4,0.4c-0.6,0.7-1.1,1.4-1.6,2
			c-0.3,0.4-0.7,0.8-1.1,1.1c-0.5,0.4-1,0.5-1.4,0.2c-0.3-0.3-0.3-0.8,0-1.3c0.2-0.4,0.4-0.7,0.7-1c0.7-0.9,1.4-1.8,2.1-2.8
			c-1-0.8-2-1.6-3.1-2.4c-0.2,0.3-0.5,0.5-0.7,0.8c-1.1,1.4-2.3,2.8-3.4,4.2c-0.3,0.4-0.7,0.7-1,1c-0.3,0.3-0.7,0.3-1.1,0.1
			c-0.3-0.2-0.4-0.7-0.2-1.1c0.1-0.3,0.3-0.6,0.5-0.8c1.1-1.5,2.3-2.9,3.4-4.4c0.3-0.3,0.6-0.6,0.9-1c-1.3-1-2.5-2-3.7-2.9
			c-2.5,2.5-4.9,5-7.4,7.5c0.4,0.5,0.9,1,1.4,1.5c0.3,0.3,0.5,0.6,0.7,0.9c0.2,0.3,0.2,0.7-0.1,1c-0.3,0.3-0.6,0.2-0.9,0
			c-0.2-0.2-0.5-0.3-0.7-0.5c-3.8-3.2-7.3-6.7-10.3-10.6c-1.9-2.4-3.8-4.9-5.8-7.2c-1-1.2-2.2-2.3-3.3-3.3c-1.9-1.6-4.1-2.5-6.6-2.7
			c-1.9-0.2-3.7-0.1-5.6-0.1c-2,0.1-4-0.1-6-0.4c-0.3,0-0.6-0.1-1.1-0.1c0.3,0.3,0.4,0.5,0.6,0.6c1.1,0.7,2.1,1.4,3.2,2
			c1.7,0.8,3.5,1.6,5.3,2.2c4.9,1.7,9.2,4.3,12.9,8c2.3,2.3,4.6,4.6,7.2,6.7c0.2,0.1,0.3,0.3,0.5,0.5c0.2,0.3,0.2,0.7,0,1
			c-0.2,0.3-0.6,0.4-1.1,0.2c-0.2-0.1-0.3-0.2-0.4-0.3c-1.5-1.1-3-2.3-4.5-3.4c-0.1-0.1-0.2-0.1-0.3-0.2c-0.2,0.2-0.5,0.5-0.7,0.7
			c-1.1,1-2.2,2.1-3.3,3.1c-0.6,0.5-1,0.5-1.3,0.2c-0.3-0.3-0.3-0.7,0.2-1.4c0.7-0.9,1.5-1.7,2.2-2.5c0.5-0.5,1-0.9,1.5-1.5
			c-1-0.9-2.1-1.8-3.1-2.8c-2,1.9-4,3.8-5.9,5.7c-0.5,0.5-1.1,0.9-1.6,1.4c-0.1,0.1-0.3,0.2-0.4,0.3c-0.3,0.2-0.7,0.2-0.9-0.1
			c-0.3-0.3-0.3-0.6-0.1-0.9c0.3-0.5,0.7-1,1.1-1.5c1.9-2,3.7-4.2,6-5.8c0.1,0,0.1-0.1,0.1-0.2c-0.6-0.6-2.4-1.9-3.5-2.4
			c-0.1,0.2-0.3,0.4-0.5,0.6c-1.6,1.7-3.2,3.5-4.8,5.2c-0.4,0.4-0.9,0.9-1.4,1.2c-0.6,0.5-0.9,0.5-1.3,0.2c-0.3-0.3-0.3-0.7,0.1-1.3
			c0.3-0.5,0.7-1,1.1-1.5c1.6-1.8,3.3-3.6,4.9-5.5c-0.9-0.5-1.8-0.9-2.9-1.3c-2.3,2.3-4.6,4.6-6.9,6.9c0.2,0.2,0.3,0.4,0.5,0.6
			c0.8,1,1.6,2.1,2.5,3.1c1.6,1.9,3.2,3.8,4.7,5.8c0.3,0.4,0.7,0.8,1,1.2c0.4,0.5,0.4,1,0,1.3c-0.3,0.3-0.8,0.3-1.3-0.1
			c-1-0.8-1.9-1.6-2.8-2.5c-1.3-1.4-2.6-2.8-3.8-4.2c-1.5-1.7-2.9-3.3-4.3-5c-1.5-1.7-3.2-3-5.2-4c-1.4-0.7-2.8-1.3-4.1-2
			c-2.4-1.2-4.6-2.7-6.6-4.6c-0.7-0.7-1.5-1.5-2.3-2.1c-0.7-0.5-1.4-1-2.2-1.4C160.3,226.9,159.8,226.8,159.1,227z M227,239.6
			c-0.8-1-1.5-2-2.2-2.9c-2.6,2.5-5.1,5-7.7,7.5c0.9,1,1.7,1.9,2.6,2.8C222.1,244.5,224.6,242,227,239.6z M183.5,239.7
			c1.9-2.1,3.8-4.1,5.7-6.2c-1.4-0.6-2.8-1.2-4.3-1.8c-1.2,2.1-3,3.6-4.5,5.2C181.4,237.9,182.4,238.8,183.5,239.7z M213.4,239.6
			c0.8,1,1.5,2,2.2,2.9c2.8-2.6,5.5-5.2,8.3-7.8c-0.2-0.9-0.3-1.9-0.5-3c-0.2,0.2-0.4,0.3-0.5,0.4c-0.6,0.6-1.1,1.1-1.7,1.7
			C219,236.3,216.7,238.4,213.4,239.6z M178.7,235.8c1.6-1.7,3.1-3.4,4.7-5.1c-0.7-0.6-1.4-1.2-2.2-1.8c-1.9,1.9-4.2,3.3-6.5,4.8
			C176.1,234.5,177.4,235.2,178.7,235.8z M180,227.4c0-0.1-0.1-0.2-0.1-0.2c-0.3,0.1-0.5,0.1-0.8,0.2c-1.5,0.6-3.1,1.2-4.6,1.8
			c-1.5,0.6-2.9,1.2-4.5,1.6c-0.1,0-0.3,0.1-0.5,0.2c1.1,0.8,2.2,1.5,3.3,2C175.3,231,177.7,229.2,180,227.4z"/>
		<g>
			<path class="st99" d="M244.5,223.4c0.1,3,1.1,6.3,3.5,9.1c1.6,1.9,3.5,3.5,5.8,4.7c2.5,1.3,5,2.5,7.5,3.7
				c1.4,0.7,2.8,1.3,4.2,2.1c1.1,0.6,2.1,1.3,2.9,2.2c0.4,0.5,0.8,1,1.1,1.6c0.2,0.3,0.2,0.7,0.2,1.1c0,0.3,0,0.6-0.4,0.8
				c-0.4,0.1-0.5-0.2-0.7-0.4c-0.5-0.5-1-1-1.6-1.4c-1-0.6-2.1-1.2-3.2-1.7c-3.5-1.5-7-3.2-10.4-5c-3.1-1.7-5.7-3.9-7.9-6.7
				c-2.1-2.8-3.2-5.9-3.5-9.3c-0.3-3.3,0.3-6.4,2.1-9.2c1.2-1.9,2.7-3.5,4.7-4.5c3.8-2,8-0.9,10.5,2.6c1.3,1.9,1.9,3.9,1.7,6.2
				c-0.2,2.8-2.9,5.7-5.8,6.2c-2.2,0.4-4.3-0.8-5.2-2.7c-0.7-1.6-0.8-3.2-0.3-4.8c0-0.1,0.1-0.3,0.2-0.4c0.2-0.4,0.6-0.6,1-0.5
				c0.4,0.1,0.7,0.4,0.7,0.8c0,0.6,0,1.1,0,1.7c-0.1,0.7,0.1,1.4,0.4,2c0.5,1.2,1.6,1.7,2.9,1.4c2.5-0.6,4-3.1,3.5-5.7
				c-0.4-1.9-1.4-3.4-3-4.4c-1.9-1.2-3.9-1.1-5.8,0c-2.3,1.3-3.8,3.2-4.6,5.7C244.7,219.8,244.5,221.3,244.5,223.4z"/>
			<path class="st99" d="M261.6,231.6c0,1.5,0.5,2.9,1.3,4.2c0.9,1.4,2.1,2.6,3.4,3.6c0.7,0.5,1.5,1,2.2,1.6
				c0.3,0.2,0.6,0.5,0.8,0.8c0.2,0.4,0,0.8-0.5,0.8c-0.3,0-0.6,0-0.9-0.1c-4.2-1.7-7.3-4.5-8.4-9.1c-0.5-2.1-0.1-4.2,1.1-6
				c0.9-1.4,2.2-2.3,3.9-2.6c1.8-0.3,3.3,0.3,4.4,1.8c1.1,1.4,1.3,3,0.5,4.6c-0.3,0.6-0.8,1.2-1.3,1.7c-0.3,0.3-0.7,0.4-1.2,0.2
				c-0.5-0.2-0.6-0.8-0.3-1.3c0.2-0.3,0.4-0.5,0.6-0.8c0.7-1,0.6-2.1-0.2-3.1c-0.7-0.9-1.9-1.2-3-0.7c-1.6,0.7-2.2,2.1-2.4,3.7
				C261.6,231.1,261.6,231.4,261.6,231.6z"/>
		</g>
		<g>
			<path class="st100" d="M151.3,321.6c0.1-1.5,0.3-2,1.1-2c1.2,0,1.2,1,1.4,1.9c0.3-0.4,0.5-0.7,0.8-1c0.2-0.3,0.4-0.5,0.7-0.7
				c0.4-0.3,1-0.3,1.4,0c0.4,0.3,0.6,0.8,0.4,1.3c0,0.1-0.1,0.2-0.1,0.3c-0.8,1.4-1.5,2.7-2.4,4.1c-0.8,1.3-2,1.4-3.2,0.5
				c-0.8-0.6-1.3-1.5-1.8-2.4c-0.2-0.4-0.5-0.9-0.6-1.4c-0.2-0.5,0-1,0.3-1.3c0.4-0.3,0.9-0.3,1.4,0
				C150.7,321.1,151,321.3,151.3,321.6z"/>
			<path class="st100" d="M144.9,295.4c0-0.4,0-0.7,0-1.1c0-0.8,0.4-1.2,1-1.3c0.6-0.1,1.1,0.3,1.3,1c0.1,0.5,0.2,1.1,0.3,1.6
				c0,0.1,0.1,0.3,0.1,0.6c0.3-0.5,0.6-0.8,0.8-1.2c0.6-0.8,1.1-1,1.7-0.6c0.5,0.4,0.6,1,0.1,1.8c-0.6,1-1.3,2-2.1,2.9
				c-1,1.2-2.3,1.3-3.3,0.1c-1-1.2-1.8-2.6-2.6-3.9c-0.1-0.2-0.1-0.4-0.2-0.6c-0.1-0.5,0.1-0.9,0.5-1c0.4-0.2,0.8,0,1.1,0.3
				c0.3,0.3,0.5,0.6,0.7,0.9c0.1,0.2,0.3,0.4,0.5,0.6C144.8,295.5,144.9,295.5,144.9,295.4z"/>
			<path class="st100" d="M160.1,307.8c0-0.3,0-0.6,0-0.9c0.1-0.5,0.4-0.8,0.8-0.8c0.5,0,0.8,0.2,0.9,0.6c0.2,0.7,0.4,1.5,0.6,2.3
				c0.1-0.2,0.3-0.3,0.4-0.4c0.4-0.7,0.8-1.5,1.2-2.2c0.3-0.5,0.8-0.6,1.2-0.4c0.4,0.2,0.6,0.7,0.4,1.2c0,0.1,0,0.1-0.1,0.2
				c-0.7,1.4-1.3,2.8-2,4.1c-0.1,0.2-0.2,0.3-0.3,0.5c-0.8,0.9-1.6,0.9-2.5,0.1c-1.3-1.3-2.1-2.8-2.9-4.4c0,0-0.1-0.1-0.1-0.2
				c-0.2-0.5,0-0.9,0.3-1.1c0.3-0.2,0.7-0.1,1,0.3c0.3,0.4,0.5,0.8,0.8,1.2C160,307.8,160.1,307.8,160.1,307.8z"/>
			<path class="st100" d="M186.2,323.4c0.1-0.4,0.1-0.6,0.2-0.8c0.2-0.5,0.5-0.8,1-0.8c0.5,0,0.9,0.3,1,0.9c0.1,0.3,0.1,0.6,0.1,1.2
				c0.3-0.5,0.6-0.8,0.8-1.1c0.3-0.3,0.6-0.6,1.1-0.6c0.7,0.1,1.2,0.8,0.9,1.5c-0.6,1.2-1.3,2.5-2.5,3.3c-0.8,0.6-1.6,0.6-2.4,0.1
				c-1.4-0.8-2.3-2.1-3.1-3.5c-0.3-0.6,0-1.3,0.6-1.7c0.5-0.3,1-0.2,1.5,0.4C185.7,322.7,185.9,323,186.2,323.4z"/>
		</g>
		<g>
			<path class="st101" d="M162,285.1c-1.1-1.1-0.8-1.5-0.1-2.4c0-0.1-0.1-0.1-0.2-0.2c-0.9-0.9-0.9-1.8,0.1-2.5c1-0.7,2-1.2,3-1.8
				c1-0.6,1.9-1.2,2.6-2.1c0.3-0.4,0.6-0.9,0.9-1.4c-0.1,0-0.1-0.1-0.2-0.1c-0.5,0.4-0.9,0.8-1.4,1.2c-0.7,0.6-1.3,1.2-2,1.8
				c-0.3,0.2-0.7,0.4-1,0.5c-0.5,0.1-1-0.1-1.3-0.5c-0.3-0.4-0.3-0.9,0-1.3c0.2-0.3,0.4-0.5,0.6-0.7c0.6-0.5,1.2-1,1.8-1.5
				c0.8-0.6,1.2-1.4,1.6-2.4c-0.3,0.1-0.4,0.2-0.6,0.3c-0.3,0.1-0.5,0.3-0.8,0.4c-0.7,0.2-1.3,0.1-1.7-0.4c-0.4-0.5-0.4-1,0-1.6
				c0.1-0.1,0.2-0.3,0.3-0.5c-0.4,0.2-0.7,0.3-1,0.4c-0.3,0.1-0.7,0.2-1.1,0.2c-0.5,0-0.8-0.3-0.9-0.8c-0.1-0.4,0.1-0.8,0.5-1
				c0.3-0.2,0.7-0.3,1-0.4c0.8-0.2,1.4-0.7,1.9-1.3c1.1-1.1,2-2.4,2.7-3.9c0-0.1,0.1-0.2,0-0.4c-0.2,0.2-0.4,0.4-0.6,0.5
				c-0.8,0.7-1.6,1.4-2.5,2c-0.5,0.3-1.1,0.5-1.7,0.6c-0.2,0.1-0.5,0-0.7-0.1c-0.4-0.1-0.4-0.5-0.1-0.8c0.1-0.1,0.2-0.1,0.3-0.2
				c3-1.5,4.9-4,6.4-6.9c0.2-0.4,0.4-0.9,0.6-1.3c0.5-1,1.3-1.1,2.1-0.4c0.3,0.3,0.5,0.6,0.7,0.9c1.3,1.9,2.9,3.5,4.9,4.6
				c0.4,0.2,0.8,0.5,1.1,0.9c0.4,0.4,0.4,0.8,0.2,1.1c-0.2,0.3-0.6,0.5-1.1,0.3c-0.8-0.3-1.5-0.6-2.2-0.9c-0.1,0-0.2-0.1-0.3-0.1
				c0,0-0.1,0.1-0.1,0.1c0.2,0.2,0.3,0.5,0.5,0.7c0.9,1.1,2,1.9,3.2,2.5c0.5,0.3,1.1,0.6,1.6,0.9c0.5,0.3,0.8,0.8,0.6,1.4
				c-0.1,0.6-0.6,1-1.2,1c-0.7,0-1.3-0.1-2-0.3c-0.5-0.1-0.9-0.5-1.5-0.6c0.1,0.1,0.2,0.2,0.3,0.3c0.5,0.3,1,0.7,1.4,1
				c0.3,0.2,0.6,0.5,0.8,0.9c0.5,0.9-0.2,1.9-1.2,1.8c-0.5,0-1-0.2-1.5-0.3c0.4,0.6,0.8,1,1.4,1.2c0.6,0.3,1.2,0.5,1.8,0.7
				c0.3,0.1,0.6,0.2,0.8,0.4c0.6,0.3,0.8,0.9,0.7,1.5c-0.1,0.6-0.6,1.1-1.2,1.1c-0.6,0-1.2-0.1-1.7-0.3c-0.4-0.1-0.7-0.3-1.1-0.4
				c0.2,0.2,0.3,0.4,0.5,0.6c1.2,1.3,2.6,2.2,4.3,2.6c0.6,0.1,1.1,0.3,1.7,0.4c0.7,0.2,1,0.7,0.9,1.2c-0.1,0.6-0.5,0.9-1.2,0.9
				c-0.7,0-1.4-0.2-2.1-0.3c-0.3,0-0.5-0.1-0.8-0.2c0.5,0.8,2.7,2.5,4.2,3.2c0.2-0.3,0.3-0.5,0.5-0.8c1.8-3.2,3-6.6,3.9-10.1
				c1-3.9,1.7-7.8,2.3-11.7c0.1-0.6,0.2-1.2,0.4-1.7c0.2-0.6,0.5-1.1,1.3-1.2c0.6-0.1,1.2,0.3,1.5,1c0.3,0.9,0.5,1.8,0.6,2.8
				c0.7,4.9,1.8,9.7,3.5,14.4c0.2,0.6,0.5,1.3,0.8,2c0.2-0.4,0.4-0.6,0.6-0.9c1.6-2.8,2.6-5.8,3.3-8.8c0.9-3.6,1.3-7.2,1.5-10.9
				c0.2-2.4,0.2-4.9,0.4-7.3c0-0.3,0-0.6,0.1-0.8c0.1-0.4,0.3-0.7,0.7-0.7c0.4-0.1,0.8,0.2,0.9,0.5c0.1,0.2,0.2,0.5,0.3,0.8
				c0.3,1.7,0.5,3.4,0.8,5.1c0.7,5.5,1.8,10.9,3.2,16.3c1,3.8,2.1,7.6,3.6,11.2c0.3,0.7,0.6,1.4,1,2.2c0.6-0.4,1.2-0.8,1.9-1.2
				c-0.4-0.5-0.8-0.9-0.5-1.5c0.2-0.4,0.6-0.8,0.8-1.2c-1-0.9-1-1.1,0.2-2.9c-0.3,0-0.5,0.1-0.7,0.1c-1,0-1.6-0.9-1-1.8
				c0.2-0.3,0.4-0.5,0.6-0.7c0.7-0.7,1.4-1.4,2.1-2.1c0.2-0.2,0.4-0.4,0.6-0.8c-0.3,0.2-0.5,0.4-0.8,0.5c-0.4,0.2-0.7,0.4-1.1,0.5
				c-0.8,0.1-1.3-0.6-1-1.4c0.2-0.4,0.4-0.7,0.7-1c0.7-0.8,1.4-1.5,2-2.2c0.2-0.3,0.4-0.6,0.5-1c-0.2,0.1-0.4,0.3-0.6,0.4
				c-0.5,0.3-1.1,0.6-1.7,0.6c-0.6,0-1-0.2-1.3-0.7c-0.3-0.5-0.2-1.1,0.2-1.6c0.3-0.3,0.6-0.6,0.9-0.9c0.6-0.6,1.2-1.1,1.7-1.7
				c0.6-0.6,1-1.4,1.4-2.4c-0.2,0.2-0.3,0.3-0.4,0.3c-0.1,0.1-0.2,0.2-0.3,0.3c-0.8,0.8-1.6,1.5-2.7,1.8c-0.4,0.1-0.8,0.1-1.2-0.1
				c-0.5-0.3-0.5-0.8,0-1c2.1-0.8,3.2-2.6,4.2-4.5c0.4-0.8,0.7-1.6,1.1-2.4c0.1-0.3,0.2-0.6,0.4-0.8c0.7-1.3,1.9-1.4,2.8-0.1
				c0.3,0.4,0.5,0.8,0.7,1.2c1,2,2.3,3.8,4.1,5.2c0.3,0.2,0.5,0.5,0.7,0.8c0.3,0.5,0.3,1,0,1.4c-0.3,0.5-0.8,0.7-1.3,0.6
				c-0.6-0.1-1.1-0.4-1.6-0.6c-0.2-0.1-0.5-0.3-0.8-0.3c0.2,0.3,0.4,0.6,0.6,0.8c0.4,0.5,0.8,0.9,1.2,1.4c1,1.1,1.1,1.6,0.6,3
				c0.6,0.4,1.2,0.8,1.8,1.2c0.3,0.2,0.6,0.4,0.9,0.7c0.5,0.5,0.6,1.2,0.3,1.8c-0.3,0.6-0.9,0.9-1.6,0.8c-0.4-0.1-0.8-0.2-1.4-0.2
				c0.3,0.2,0.5,0.5,0.8,0.7c0.4,0.4,0.9,0.7,1.2,1.1c0.4,0.5,0.4,1.1,0,1.6c-0.4,0.5-1,0.6-1.6,0.4c-0.2-0.1-0.3-0.2-0.6-0.1
				c0.6,0.6,1.1,1.2,1.7,1.7c0.3,0.3,0.5,0.5,0.8,0.7c0.9,1,0.9,1.8,0,2.7c0.1,0.7,0.1,1.5,0.2,2.3c1.7,0.2,3.5,0.1,5.4,0.1
				c0.1-0.2,0.1-0.4,0.2-0.7c0.4-2.2,1-4.3,2-6.3c2.6-5.1,5.1-10.2,7.3-15.5c0.3-0.6,0.5-1.2,0.8-1.8c0.5-1.1,1.3-1.8,2.5-2
				c0.8-0.1,1.5-0.3,2.3-0.3c3.3-0.2,6.6-0.3,9.9-0.4c0.3,0,0.6,0,1-0.1c-0.1-1.2-0.2-2.3-0.3-3.3c0-0.4-0.1-0.7-0.1-1.1
				c0-1.5,0.6-2.4,2.1-2.8c0.7-0.2,1.4-0.3,2.1-0.4c0.6-0.1,1.3-0.1,1.9-0.2c1.5-0.1,2.5,0.5,3,1.9c0.3,1,0.5,2,0.7,3
				c0.1,0.8,0.2,1.6,0.3,2.5c0.5,0,0.9,0,1.4,0c1.1,0,2.1,0,3.2,0.2c1.7,0.2,3.2,1,4.2,2.5c0.7,1.1,1.4,2.4,1.9,3.6
				c1.4,4.1,2.8,8.3,4.1,12.4c0.4,1.3,0.6,2.6,0.6,4c0,0.4,0,0.8-0.2,1.1c-0.3,0.5-0.2,1.1-0.2,1.6c0,3.8,0,7.6-0.1,11.4
				c-0.1,2-0.1,4-0.6,6c-0.1,0.4-0.2,0.9-0.4,1.3c-0.6,1.3-1.5,2.1-2.9,2.2c-1.3,0.1-2.7,0.2-4,0.3c-2.4,0.1-4.9,0.2-7.3,0.3
				c-1.4,0-2.9,0.1-4.3,0.1c-6.4,0-12.8,0-19.2,0c-2.8,0-5.5-0.1-8.3-0.2c-0.7,0-1.5-0.2-2.2-0.4c-0.5-0.1-0.8-0.4-1-0.8
				c-0.6-0.9-0.8-1.8-0.9-2.8c0-0.8,0-1.7-0.1-2.5c0-0.1,0-0.3,0-0.5c-0.8,0.2-1.5,0.3-2.2,0.5c-1.2,0.3-2.3,0.6-3.5,0.8
				c-1.6,0.4-3.3,0.4-4.9,0c-3.5-0.9-6.9-0.5-10.3,0.5c-1.3,0.4-2.6,0.9-3.9,1.4c-3.3,1.3-6.8,2.1-10.3,2.4
				c-2.7,0.3-5.5,0.5-8.1,1.1c-0.3,0.1-0.5,0.1-0.8,0.2c-2.6,0.8-5,1.8-7.9,2.2c0.3,0.4,0.4,0.6,0.6,0.9c1.5,1.8,3.3,3.1,5.4,4.2
				c1.7,0.8,3.3,1.6,5,2.3c2.2,0.9,4.3,2.1,6.3,3.5c0.4,0.3,0.8,0.6,1.2,0.9c2.9,2.1,6,3.5,9.5,4.1c1.7,0.3,3.3,0.7,5,1.1
				c3.3,0.7,6.3,2.1,9.1,3.9c2.7,1.7,5.5,2.9,8.6,3.6c1.8,0.4,3.6,0.7,5.3,1c1.7,0.3,3.4,0.7,5.1,1.1c3.7,1,7.6,1.5,11.4,1.6
				c1.9,0.1,3.7,0.3,5.6,0.5c0.3,0,0.6,0.1,0.8,0.2c0.3,0.1,0.5,0.3,0.5,0.7c0,0.4-0.2,0.6-0.6,0.6c-0.2,0-0.4,0-0.6,0
				c-3.7-0.2-7.5-0.2-11.2-0.5c-2-0.2-4-0.6-5.9-1c-2.4-0.5-4.7-1-7.1-1.5c-2.1-0.4-4.3-0.9-6.4-1.4c-1.8-0.4-3.5-1.2-5.1-2.1
				c-0.5-0.3-1-0.6-1.5-0.9c-3.7-2.3-7.7-3.7-12-4.4c-1.4-0.2-2.9-0.6-4.3-0.9c-2.5-0.6-4.9-1.6-7-3.1c-1-0.7-2.1-1.4-3.1-2.1
				c-1.6-1.1-3.3-2-5-2.7c-1.6-0.7-3.2-1.4-4.8-2.1c-3.3-1.6-6-3.9-7.8-7.1c-1.8-3.2-4.5-5.6-7.8-7.3c-2.6-1.3-5.2-2.5-7.9-3.7
				c-2.2-1-4.4-1.9-6.4-3.2c-2.2-1.4-4-3.1-5.9-4.9c-2-1.9-3.9-3.9-5.9-5.9c-0.9-0.9-1.8-1.7-3.1-2.1c-0.1,0-0.3-0.1-0.4-0.2
				c-0.4-0.3-0.3-0.7,0.1-0.8c0.4-0.1,0.8-0.1,1.2-0.1c1.1,0.1,2,0.6,2.9,1.3c1.4,1.2,2.9,2.5,4.3,3.8c0.6,0.5,1.1,1,1.6,1.6
				c0.4,0.5,1,0.7,1.6,0.8c1.5,0.1,3,0.2,4.4,0.3c0.2,0,0.5,0,0.6-0.1c0.9-0.6,1.8-1.2,2.7-1.9C161.8,285.3,161.9,285.2,162,285.1z
				 M155.1,288.5c0,0,0,0.1-0.1,0.1c0.2,0.2,0.3,0.3,0.5,0.5c2.3,1.9,4.7,3.5,7.5,4.6c0.9,0.3,1.7,0.7,2.6,1c2.9,1.2,5.8,2.4,8.6,4
				c2.9,1.7,5.4,3.8,7.1,6.7c0,0.1,0.1,0.1,0.2,0.2c0.1,0,0.2,0,0.3-0.1c2.2-0.7,4.3-1.3,6.5-2c1.3-0.4,2.6-0.8,3.9-1
				c2.5-0.4,5.1-0.7,7.6-1c3.1-0.4,6-1.1,8.9-2.2c1.8-0.7,3.6-1.3,5.4-1.8c2.9-0.8,5.9-1,9-0.4c2.1,0.5,4.2,0.3,6.3-0.1
				c1.5-0.3,3-0.5,4.5-0.7c0.2,0,0.3-0.1,0.5-0.1c0.1-2.9,0.3-5.7,0.4-8.6c-0.3,0-0.6,0-0.9,0c-1.1,0-2.2-0.1-3.4-0.1
				c-1.9,0-3.9-0.1-5.8,0c-4,0.2-7.9,0.8-11.9,1.4c-3.7,0.5-7.3,0.9-11,0.8c-4.2-0.1-8.4-0.6-12.5-1.2c-3.8-0.5-7.6-0.8-11.4-0.5
				c-3.1,0.2-6.1,0.4-9.2,0.7c-3.9,0.3-7.8,0.4-11.7,0C156.4,288.7,155.8,288.6,155.1,288.5z M254.6,302.7c0.7,0,1.3,0,1.8,0
				c1,0,2,0.1,3,0.1c0.3,0,0.5-0.1,0.8-0.1c0-0.6,0-1.1,0-1.6c-0.1-1.2-0.2-2.4-0.3-3.6c-0.2-3-0.4-5.9-0.7-8.9
				c-0.3-2.7-1-5.4-2.3-7.8c-2-3.6-3.8-7.4-5.7-11c-0.9-1.7-1.8-3.4-2.7-5.1c-0.3-0.5-0.6-0.9-1-1.5c-0.3,0.7-0.6,1.3-0.9,1.8
				c-2.3,5.1-4.6,10.3-6.9,15.4c-1.4,3.2-2.3,6.5-2.5,9.9c-0.2,3.2-0.3,6.3-0.4,9.5c0,0.9,0.1,1.9,0.2,2.8c2.2,0,4.2,0,6.3,0
				c0-0.5-0.1-1-0.1-1.5c0-3.4,0-6.7,0-10.1c0-1.1,0.2-2.3,0.3-3.4c0.2-1.3,0.9-2.2,2.1-2.7c0.3-0.1,0.7-0.3,1-0.4
				c1.6-0.4,3.3-0.5,5-0.4c1.7,0.2,2.5,0.8,2.8,2.5c0.2,1.1,0.3,2.2,0.3,3.2c0,3.4-0.1,6.7-0.2,10.1
				C254.6,300.8,254.6,301.7,254.6,302.7z M262,284.9c0.4,6,0.7,12,1.1,17.9c0.3,0,0.5,0.1,0.7,0c2.5-0.1,5-0.2,7.5-0.1
				c3.3,0.1,6.7,0,10-0.3c0.8-0.1,1.1-0.3,1.3-1c0.1-0.3,0.1-0.5,0.2-0.8c0.1-1.3,0.3-2.5,0.3-3.8c0.1-4,0.2-7.9,0.2-11.9
				c0-0.2,0-0.5,0-0.7C276,284.4,269,284.7,262,284.9z M260.9,282.1c0.1,0,0.2,0,0.3,0c2.8-0.1,5.6-0.2,8.5-0.3c0.8,0,1.6,0,2.4-0.1
				c2.5-0.1,4.9-0.2,7.4-0.2c0.8,0,1.7,0,2.5,0c0.4,0,0.8-0.1,1.2-0.2c0.3-0.1,0.4-0.3,0.4-0.6c-0.2-1.6-0.6-3.2-1.2-4.7
				c-0.6,0.1-1.1,0.1-1.7,0.2c-1,0.1-2,0.3-3,0.4c-3.3,0.2-6.6,0.5-9.9,0.7c-2.8,0.1-5.6,0.2-8.5,0.3c-0.2,0-0.4,0-0.7,0.1
				C259.2,279.2,260.1,280.6,260.9,282.1z M251.9,286.7c-0.2,0-0.3-0.1-0.4-0.1c-1.5,0-2.9,0.2-4.3,0.5c-0.9,0.2-1.1,0.5-1.1,1.4
				c-0.1,2.2-0.2,4.3-0.3,6.5c-0.1,1.6-0.2,3.3-0.3,4.9c-0.1,0.9-0.1,1.8-0.2,2.6c2.3,0,4.5,0,6.7,0c0-1.4,0-2.6,0-3.9
				c0-3.5,0-6.9,0-10.4C252,287.8,251.9,287.2,251.9,286.7z M277.9,263.8c-0.9-2.1-2.3-3.2-4.4-3.1c-2.5,0-5.1,0.1-7.6,0.2
				c-3.2,0.1-6.3,0.3-9.5,0.4c-1.5,0.1-3,0-4.5,0.1c-0.7,0-1.3,0.1-2.1,0.2c0.7,1.2,1.4,2.4,2.2,3.6c3.3-0.2,6.6-0.3,9.9-0.5
				c4.3-0.3,8.7-0.6,13-0.8C275.8,263.8,276.8,263.8,277.9,263.8z M280,269c-0.4-1.1-0.8-2.2-1.2-3.3c-0.6,0.1-1.1,0.1-1.6,0.2
				c-2.2,0.2-4.4,0.3-6.6,0.5c-3,0.2-6,0.4-8.9,0.5c-2.3,0.1-4.5,0.2-6.8,0.3c-0.6,0-1.2-0.1-2-0.1c0.6,1.1,1.2,2.1,1.7,3.1
				C263.1,269.7,271.5,269.9,280,269z M257.5,275.7c8.1-0.7,16.1-1.2,24.2-1.6c-0.3-1-0.7-2-1-3c-8.3,0.9-16.6,0.9-25,1.2
				C256.3,273.5,256.9,274.6,257.5,275.7z M268,258.5c-0.3-1.8-0.3-3.6-0.8-5.3c-1.4,0-2.6,0.3-3.9,0.8c-0.2,0.1-0.4,0.3-0.4,0.5
				c0,1.4,0,2.8,0,4.3C264.7,258.6,266.3,258.6,268,258.5z"/>
			<path class="st101" d="M198.2,296.7c1.8-0.1,3.5-0.5,5.2-1c3.7-1,7.2-2.4,10.7-3.9c2.1-0.9,4.2-1.7,6.4-2c2.7-0.5,5.4-0.1,8,0.6
				c0.4,0.1,0.7,0.3,1,0.6c0.3,0.2,0.4,0.5,0.2,0.8c-0.1,0.4-0.5,0.2-0.7,0.2c-1.2-0.2-2.4-0.3-3.6-0.5c-2.4-0.4-4.7,0-7,0.8
				c-2.2,0.8-4.3,1.6-6.5,2.5c-3.5,1.4-6.9,2.6-10.6,3.3c-1.6,0.3-3.2,0.5-4.8,0.1c-1.1-0.3-2-0.8-2.7-1.7c-0.9-1.1-0.9-2.4,0.1-3.5
				c0.8-0.9,1.8-1.4,2.9-1.6c1.3-0.3,2.4,0.2,3.3,1c0.1,0.1,0.3,0.3,0.4,0.5c0.2,0.3,0.2,0.6,0,0.9c-0.2,0.3-0.5,0.3-0.8,0.2
				c-0.3-0.1-0.5-0.3-0.8-0.4c-1.2-0.6-2.8-0.3-3.6,0.8c-0.4,0.5-0.4,0.8,0,1.3c0.5,0.6,1.2,1,2,1.1
				C197.5,296.6,197.8,296.7,198.2,296.7z"/>
			<path class="st101" d="M176.9,290.5c1.8,0,3.5,0.5,5.1,1.3c1.3,0.7,2.6,1.4,3.9,2.3c1.8,1.2,3.3,2.7,4.4,4.5
				c0.3,0.4,0.5,0.8,0.6,1.3c0.1,0.2,0,0.6-0.2,0.7c-0.2,0.3-0.5,0-0.7-0.2c-0.5-0.4-0.9-0.9-1.4-1.4c-2.1-2.3-4.6-4.1-7.4-5.4
				c-1.3-0.6-2.7-1.1-4.2-1.2c-0.8-0.1-1.6,0-2.4,0.3c-0.7,0.3-0.7,0.7-0.2,1.2c0.8,0.8,1.9,1,2.9,0.6c0.1,0,0.1-0.1,0.2-0.1
				c0.5-0.2,0.9-0.1,1.1,0.3c0.2,0.3,0,0.8-0.4,1.1c-0.7,0.5-1.5,0.8-2.4,0.7c-1.1-0.2-2.1-0.6-2.8-1.5c-1.3-1.5-0.8-3,0.6-3.9
				C174.7,290.6,175.8,290.5,176.9,290.5z"/>
			<path class="st101" d="M248.3,282.2c-2.5,0-4.9-1.6-4.6-4.7c0.2-1.8,1.2-3.1,2.8-3.9c0.7-0.4,1.5-0.3,2.3-0.1
				c2,0.5,3.6,2.4,3.8,4.5c0.2,2.2-1.3,4-3.6,4.2C248.7,282.2,248.4,282.2,248.3,282.2z M248.2,280.2c0.7-0.1,1.5-0.2,1.8-1
				c0.6-1.5-0.3-3.3-1.9-3.6c-0.3-0.1-0.6-0.1-0.9,0c-1,0.4-1.7,1.7-1.5,2.8C245.9,279.5,246.8,280.2,248.2,280.2z"/>
			<path class="st101" d="M272.5,287.4c2.3,0.1,4.5,0.3,6.8,0.4c0.8,0.1,1.4,0.5,1.6,1.3c0.2,0.7,0.3,1.5,0.3,2.3
				c0,0.6-0.1,1.3-0.1,1.9c-0.1,1.8-1.2,2.6-2.8,2.8c-1.1,0.1-2.2,0.2-3.3,0.2c-2,0-4.1,0-6.1,0c-0.7,0-1.4-0.1-2.1-0.2
				c-1.1-0.2-1.8-0.8-2-2c-0.3-1.6-0.2-3.1,0.3-4.6c0.2-0.6,0.6-1,1.2-1.3c1.2-0.4,2.4-0.7,3.7-0.6c0.8,0,1.7,0,2.5,0
				C272.5,287.5,272.5,287.5,272.5,287.4z M266.9,293.9c0.3,0.1,0.6,0.1,0.9,0.2c1.1,0.1,2.3,0.2,3.4,0.2c2.3,0,4.7-0.2,7-0.3
				c0.1,0,0.2,0,0.3,0c0.3-0.1,0.6-0.2,0.6-0.6c0-0.9,0-1.8,0-2.8c0-0.6-0.1-0.7-0.8-0.7c-0.9-0.1-1.7-0.2-2.6-0.2
				c-2.3,0-4.5,0-6.8,0c-0.4,0-0.9,0.1-1.3,0.2c-0.5,0.1-0.7,0.3-0.7,0.8c0,0.9-0.1,1.7-0.1,2.6
				C266.7,293.4,266.8,293.6,266.9,293.9z"/>
		</g>
	</g>
</g>
</svg>
